G04 #@! TF.FileFunction,Legend,Top*
%FSLAX46Y46*%
G04 Gerber Fmt 4.6, Leading zero omitted, Abs format (unit mm)*
G04 Created by KiCad (PCBNEW 4.0.0-rc1-stable) date 3/16/2016 3:52:32 PM*
%MOMM*%
G01*
G04 APERTURE LIST*
%ADD10C,0.100000*%
%ADD11C,0.180000*%
%ADD12C,0.150000*%
G04 APERTURE END LIST*
D10*
D11*
X155248858Y-82484143D02*
X155891715Y-82484143D01*
X155506000Y-82098429D02*
X155248858Y-83255571D01*
X155806000Y-82869857D02*
X155163143Y-82869857D01*
X155548858Y-83255571D02*
X155806000Y-82098429D01*
X156363143Y-82184143D02*
X156448858Y-82184143D01*
X156534572Y-82227000D01*
X156577429Y-82269857D01*
X156620286Y-82355571D01*
X156663143Y-82527000D01*
X156663143Y-82741286D01*
X156620286Y-82912714D01*
X156577429Y-82998429D01*
X156534572Y-83041286D01*
X156448858Y-83084143D01*
X156363143Y-83084143D01*
X156277429Y-83041286D01*
X156234572Y-82998429D01*
X156191715Y-82912714D01*
X156148858Y-82741286D01*
X156148858Y-82527000D01*
X156191715Y-82355571D01*
X156234572Y-82269857D01*
X156277429Y-82227000D01*
X156363143Y-82184143D01*
X152708858Y-82484143D02*
X153351715Y-82484143D01*
X152966000Y-82098429D02*
X152708858Y-83255571D01*
X153266000Y-82869857D02*
X152623143Y-82869857D01*
X153008858Y-83255571D02*
X153266000Y-82098429D01*
X154123143Y-83084143D02*
X153608858Y-83084143D01*
X153866000Y-83084143D02*
X153866000Y-82184143D01*
X153780286Y-82312714D01*
X153694572Y-82398429D01*
X153608858Y-82441286D01*
X150168858Y-82484143D02*
X150811715Y-82484143D01*
X150426000Y-82098429D02*
X150168858Y-83255571D01*
X150726000Y-82869857D02*
X150083143Y-82869857D01*
X150468858Y-83255571D02*
X150726000Y-82098429D01*
X151068858Y-82269857D02*
X151111715Y-82227000D01*
X151197429Y-82184143D01*
X151411715Y-82184143D01*
X151497429Y-82227000D01*
X151540286Y-82269857D01*
X151583143Y-82355571D01*
X151583143Y-82441286D01*
X151540286Y-82569857D01*
X151026000Y-83084143D01*
X151583143Y-83084143D01*
X147628858Y-82484143D02*
X148271715Y-82484143D01*
X147886000Y-82098429D02*
X147628858Y-83255571D01*
X148186000Y-82869857D02*
X147543143Y-82869857D01*
X147928858Y-83255571D02*
X148186000Y-82098429D01*
X148486000Y-82184143D02*
X149043143Y-82184143D01*
X148743143Y-82527000D01*
X148871715Y-82527000D01*
X148957429Y-82569857D01*
X149000286Y-82612714D01*
X149043143Y-82698429D01*
X149043143Y-82912714D01*
X149000286Y-82998429D01*
X148957429Y-83041286D01*
X148871715Y-83084143D01*
X148614572Y-83084143D01*
X148528858Y-83041286D01*
X148486000Y-82998429D01*
X145088858Y-82484143D02*
X145731715Y-82484143D01*
X145346000Y-82098429D02*
X145088858Y-83255571D01*
X145646000Y-82869857D02*
X145003143Y-82869857D01*
X145388858Y-83255571D02*
X145646000Y-82098429D01*
X146417429Y-82484143D02*
X146417429Y-83084143D01*
X146203143Y-82141286D02*
X145988858Y-82784143D01*
X146546000Y-82784143D01*
X142913143Y-83084143D02*
X142613143Y-82655571D01*
X142398858Y-83084143D02*
X142398858Y-82184143D01*
X142741715Y-82184143D01*
X142827429Y-82227000D01*
X142870286Y-82269857D01*
X142913143Y-82355571D01*
X142913143Y-82484143D01*
X142870286Y-82569857D01*
X142827429Y-82612714D01*
X142741715Y-82655571D01*
X142398858Y-82655571D01*
X143256001Y-83041286D02*
X143341715Y-83084143D01*
X143513143Y-83084143D01*
X143598858Y-83041286D01*
X143641715Y-82955571D01*
X143641715Y-82912714D01*
X143598858Y-82827000D01*
X143513143Y-82784143D01*
X143384572Y-82784143D01*
X143298858Y-82741286D01*
X143256001Y-82655571D01*
X143256001Y-82612714D01*
X143298858Y-82527000D01*
X143384572Y-82484143D01*
X143513143Y-82484143D01*
X143598858Y-82527000D01*
X143898857Y-82484143D02*
X144241714Y-82484143D01*
X144027429Y-82184143D02*
X144027429Y-82955571D01*
X144070286Y-83041286D01*
X144156000Y-83084143D01*
X144241714Y-83084143D01*
X140137428Y-82227000D02*
X140051714Y-82184143D01*
X139923143Y-82184143D01*
X139794571Y-82227000D01*
X139708857Y-82312714D01*
X139666000Y-82398429D01*
X139623143Y-82569857D01*
X139623143Y-82698429D01*
X139666000Y-82869857D01*
X139708857Y-82955571D01*
X139794571Y-83041286D01*
X139923143Y-83084143D01*
X140008857Y-83084143D01*
X140137428Y-83041286D01*
X140180285Y-82998429D01*
X140180285Y-82698429D01*
X140008857Y-82698429D01*
X140566000Y-82484143D02*
X140566000Y-83084143D01*
X140566000Y-82569857D02*
X140608857Y-82527000D01*
X140694571Y-82484143D01*
X140823143Y-82484143D01*
X140908857Y-82527000D01*
X140951714Y-82612714D01*
X140951714Y-83084143D01*
X141766000Y-83084143D02*
X141766000Y-82184143D01*
X141766000Y-83041286D02*
X141680286Y-83084143D01*
X141508857Y-83084143D01*
X141423143Y-83041286D01*
X141380286Y-82998429D01*
X141337429Y-82912714D01*
X141337429Y-82655571D01*
X141380286Y-82569857D01*
X141423143Y-82527000D01*
X141508857Y-82484143D01*
X141680286Y-82484143D01*
X141766000Y-82527000D01*
X138004571Y-82184143D02*
X137576000Y-82184143D01*
X137533143Y-82612714D01*
X137576000Y-82569857D01*
X137661714Y-82527000D01*
X137876000Y-82527000D01*
X137961714Y-82569857D01*
X138004571Y-82612714D01*
X138047428Y-82698429D01*
X138047428Y-82912714D01*
X138004571Y-82998429D01*
X137961714Y-83041286D01*
X137876000Y-83084143D01*
X137661714Y-83084143D01*
X137576000Y-83041286D01*
X137533143Y-82998429D01*
X138304571Y-82184143D02*
X138604571Y-83084143D01*
X138904571Y-82184143D01*
D12*
X125685000Y-83145000D02*
X125685000Y-84415000D01*
X133035000Y-83145000D02*
X133035000Y-84415000D01*
X133035000Y-95355000D02*
X133035000Y-94085000D01*
X125685000Y-95355000D02*
X125685000Y-94085000D01*
X125685000Y-83145000D02*
X133035000Y-83145000D01*
X125685000Y-95355000D02*
X133035000Y-95355000D01*
X125685000Y-84415000D02*
X124750000Y-84415000D01*
X105075000Y-91501000D02*
X105075000Y-96499000D01*
X105215000Y-91509000D02*
X105215000Y-93846000D01*
X105215000Y-94154000D02*
X105215000Y-96491000D01*
X105355000Y-91525000D02*
X105355000Y-93527000D01*
X105355000Y-94473000D02*
X105355000Y-96475000D01*
X105495000Y-91549000D02*
X105495000Y-93380000D01*
X105495000Y-94620000D02*
X105495000Y-96451000D01*
X105635000Y-91582000D02*
X105635000Y-93288000D01*
X105635000Y-94712000D02*
X105635000Y-96418000D01*
X105775000Y-91623000D02*
X105775000Y-93232000D01*
X105775000Y-94768000D02*
X105775000Y-96377000D01*
X105915000Y-91673000D02*
X105915000Y-93205000D01*
X105915000Y-94795000D02*
X105915000Y-96327000D01*
X106055000Y-91734000D02*
X106055000Y-93202000D01*
X106055000Y-94798000D02*
X106055000Y-96266000D01*
X106195000Y-91804000D02*
X106195000Y-93224000D01*
X106195000Y-94776000D02*
X106195000Y-96196000D01*
X106335000Y-91886000D02*
X106335000Y-93274000D01*
X106335000Y-94726000D02*
X106335000Y-96114000D01*
X106475000Y-91981000D02*
X106475000Y-93356000D01*
X106475000Y-94644000D02*
X106475000Y-96019000D01*
X106615000Y-92092000D02*
X106615000Y-93488000D01*
X106615000Y-94512000D02*
X106615000Y-95908000D01*
X106755000Y-92220000D02*
X106755000Y-93735000D01*
X106755000Y-94265000D02*
X106755000Y-95780000D01*
X106895000Y-92369000D02*
X106895000Y-95631000D01*
X107035000Y-92548000D02*
X107035000Y-95452000D01*
X107175000Y-92767000D02*
X107175000Y-95233000D01*
X107315000Y-93056000D02*
X107315000Y-94944000D01*
X107455000Y-93528000D02*
X107455000Y-94472000D01*
X106800000Y-94000000D02*
G75*
G03X106800000Y-94000000I-800000J0D01*
G01*
X107537500Y-94000000D02*
G75*
G03X107537500Y-94000000I-2537500J0D01*
G01*
X113414000Y-95250000D02*
X112017000Y-95250000D01*
X117859000Y-95250000D02*
X119383000Y-95250000D01*
X117478000Y-96012000D02*
X117478000Y-94488000D01*
X117732000Y-96012000D02*
X117732000Y-94488000D01*
X117986000Y-95250000D02*
X117986000Y-94488000D01*
X117986000Y-94488000D02*
X113414000Y-94488000D01*
X113414000Y-94488000D02*
X113414000Y-96012000D01*
X113414000Y-96012000D02*
X117986000Y-96012000D01*
X117986000Y-96012000D02*
X117986000Y-95250000D01*
X113294000Y-83250000D02*
X111897000Y-83250000D01*
X117739000Y-83250000D02*
X119263000Y-83250000D01*
X117358000Y-84012000D02*
X117358000Y-82488000D01*
X117612000Y-84012000D02*
X117612000Y-82488000D01*
X117866000Y-83250000D02*
X117866000Y-82488000D01*
X117866000Y-82488000D02*
X113294000Y-82488000D01*
X113294000Y-82488000D02*
X113294000Y-84012000D01*
X113294000Y-84012000D02*
X117866000Y-84012000D01*
X117866000Y-84012000D02*
X117866000Y-83250000D01*
X118120000Y-93520000D02*
X113040000Y-93520000D01*
X113040000Y-93520000D02*
X113040000Y-90980000D01*
X113040000Y-90980000D02*
X118120000Y-90980000D01*
X118120000Y-90980000D02*
X118120000Y-93520000D01*
X118120000Y-92250000D02*
X119390000Y-92250000D01*
X113040000Y-92250000D02*
X111770000Y-92250000D01*
X118120000Y-90520000D02*
X113040000Y-90520000D01*
X113040000Y-90520000D02*
X113040000Y-87980000D01*
X113040000Y-87980000D02*
X118120000Y-87980000D01*
X118120000Y-87980000D02*
X118120000Y-90520000D01*
X118120000Y-89250000D02*
X119390000Y-89250000D01*
X113040000Y-89250000D02*
X111770000Y-89250000D01*
X118120000Y-87520000D02*
X113040000Y-87520000D01*
X113040000Y-87520000D02*
X113040000Y-84980000D01*
X113040000Y-84980000D02*
X118120000Y-84980000D01*
X118120000Y-84980000D02*
X118120000Y-87520000D01*
X118120000Y-86250000D02*
X119390000Y-86250000D01*
X113040000Y-86250000D02*
X111770000Y-86250000D01*
X156000000Y-91250000D02*
G75*
G03X156000000Y-91250000I-1750000J0D01*
G01*
X151250000Y-94250000D02*
X157250000Y-94250000D01*
X157250000Y-88250000D02*
X157250000Y-94250000D01*
X151250000Y-88250000D02*
X157250000Y-88250000D01*
X151250000Y-94250000D02*
X151250000Y-88250000D01*
X149000000Y-91250000D02*
G75*
G03X149000000Y-91250000I-1750000J0D01*
G01*
X144250000Y-94250000D02*
X150250000Y-94250000D01*
X150250000Y-88250000D02*
X150250000Y-94250000D01*
X144250000Y-88250000D02*
X150250000Y-88250000D01*
X144250000Y-94250000D02*
X144250000Y-88250000D01*
X142000000Y-91250000D02*
G75*
G03X142000000Y-91250000I-1750000J0D01*
G01*
X137250000Y-94250000D02*
X143250000Y-94250000D01*
X143250000Y-88250000D02*
X143250000Y-94250000D01*
X137250000Y-88250000D02*
X143250000Y-88250000D01*
X137250000Y-94250000D02*
X137250000Y-88250000D01*
X97530000Y-90890000D02*
X106530000Y-90890000D01*
X97530000Y-82890000D02*
X97530000Y-90890000D01*
X106530000Y-82890000D02*
X97530000Y-82890000D01*
X123023810Y-83702381D02*
X123023810Y-82702381D01*
X124071429Y-83607143D02*
X124023810Y-83654762D01*
X123880953Y-83702381D01*
X123785715Y-83702381D01*
X123642857Y-83654762D01*
X123547619Y-83559524D01*
X123500000Y-83464286D01*
X123452381Y-83273810D01*
X123452381Y-83130952D01*
X123500000Y-82940476D01*
X123547619Y-82845238D01*
X123642857Y-82750000D01*
X123785715Y-82702381D01*
X123880953Y-82702381D01*
X124023810Y-82750000D01*
X124071429Y-82797619D01*
X125023810Y-83702381D02*
X124452381Y-83702381D01*
X124738095Y-83702381D02*
X124738095Y-82702381D01*
X124642857Y-82845238D01*
X124547619Y-82940476D01*
X124452381Y-82988095D01*
X146261905Y-87452381D02*
X146261905Y-86452381D01*
X146642858Y-86452381D01*
X146738096Y-86500000D01*
X146785715Y-86547619D01*
X146833334Y-86642857D01*
X146833334Y-86785714D01*
X146785715Y-86880952D01*
X146738096Y-86928571D01*
X146642858Y-86976190D01*
X146261905Y-86976190D01*
X147214286Y-86547619D02*
X147261905Y-86500000D01*
X147357143Y-86452381D01*
X147595239Y-86452381D01*
X147690477Y-86500000D01*
X147738096Y-86547619D01*
X147785715Y-86642857D01*
X147785715Y-86738095D01*
X147738096Y-86880952D01*
X147166667Y-87452381D01*
X147785715Y-87452381D01*
X101607143Y-94166666D02*
X101654762Y-94214285D01*
X101702381Y-94357142D01*
X101702381Y-94452380D01*
X101654762Y-94595238D01*
X101559524Y-94690476D01*
X101464286Y-94738095D01*
X101273810Y-94785714D01*
X101130952Y-94785714D01*
X100940476Y-94738095D01*
X100845238Y-94690476D01*
X100750000Y-94595238D01*
X100702381Y-94452380D01*
X100702381Y-94357142D01*
X100750000Y-94214285D01*
X100797619Y-94166666D01*
X101702381Y-93214285D02*
X101702381Y-93785714D01*
X101702381Y-93500000D02*
X100702381Y-93500000D01*
X100845238Y-93595238D01*
X100940476Y-93690476D01*
X100988095Y-93785714D01*
X115011905Y-95702381D02*
X115011905Y-94702381D01*
X115250000Y-94702381D01*
X115392858Y-94750000D01*
X115488096Y-94845238D01*
X115535715Y-94940476D01*
X115583334Y-95130952D01*
X115583334Y-95273810D01*
X115535715Y-95464286D01*
X115488096Y-95559524D01*
X115392858Y-95654762D01*
X115250000Y-95702381D01*
X115011905Y-95702381D01*
X115916667Y-94702381D02*
X116535715Y-94702381D01*
X116202381Y-95083333D01*
X116345239Y-95083333D01*
X116440477Y-95130952D01*
X116488096Y-95178571D01*
X116535715Y-95273810D01*
X116535715Y-95511905D01*
X116488096Y-95607143D01*
X116440477Y-95654762D01*
X116345239Y-95702381D01*
X116059524Y-95702381D01*
X115964286Y-95654762D01*
X115916667Y-95607143D01*
X115011905Y-83692381D02*
X115011905Y-82692381D01*
X115250000Y-82692381D01*
X115392858Y-82740000D01*
X115488096Y-82835238D01*
X115535715Y-82930476D01*
X115583334Y-83120952D01*
X115583334Y-83263810D01*
X115535715Y-83454286D01*
X115488096Y-83549524D01*
X115392858Y-83644762D01*
X115250000Y-83692381D01*
X115011905Y-83692381D01*
X116440477Y-83025714D02*
X116440477Y-83692381D01*
X116202381Y-82644762D02*
X115964286Y-83359048D01*
X116583334Y-83359048D01*
X115583334Y-92702381D02*
X115250000Y-92226190D01*
X115011905Y-92702381D02*
X115011905Y-91702381D01*
X115392858Y-91702381D01*
X115488096Y-91750000D01*
X115535715Y-91797619D01*
X115583334Y-91892857D01*
X115583334Y-92035714D01*
X115535715Y-92130952D01*
X115488096Y-92178571D01*
X115392858Y-92226190D01*
X115011905Y-92226190D01*
X116535715Y-92702381D02*
X115964286Y-92702381D01*
X116250000Y-92702381D02*
X116250000Y-91702381D01*
X116154762Y-91845238D01*
X116059524Y-91940476D01*
X115964286Y-91988095D01*
X115583334Y-89702381D02*
X115250000Y-89226190D01*
X115011905Y-89702381D02*
X115011905Y-88702381D01*
X115392858Y-88702381D01*
X115488096Y-88750000D01*
X115535715Y-88797619D01*
X115583334Y-88892857D01*
X115583334Y-89035714D01*
X115535715Y-89130952D01*
X115488096Y-89178571D01*
X115392858Y-89226190D01*
X115011905Y-89226190D01*
X115964286Y-88797619D02*
X116011905Y-88750000D01*
X116107143Y-88702381D01*
X116345239Y-88702381D01*
X116440477Y-88750000D01*
X116488096Y-88797619D01*
X116535715Y-88892857D01*
X116535715Y-88988095D01*
X116488096Y-89130952D01*
X115916667Y-89702381D01*
X116535715Y-89702381D01*
X115583334Y-86702381D02*
X115250000Y-86226190D01*
X115011905Y-86702381D02*
X115011905Y-85702381D01*
X115392858Y-85702381D01*
X115488096Y-85750000D01*
X115535715Y-85797619D01*
X115583334Y-85892857D01*
X115583334Y-86035714D01*
X115535715Y-86130952D01*
X115488096Y-86178571D01*
X115392858Y-86226190D01*
X115011905Y-86226190D01*
X115916667Y-85702381D02*
X116535715Y-85702381D01*
X116202381Y-86083333D01*
X116345239Y-86083333D01*
X116440477Y-86130952D01*
X116488096Y-86178571D01*
X116535715Y-86273810D01*
X116535715Y-86511905D01*
X116488096Y-86607143D01*
X116440477Y-86654762D01*
X116345239Y-86702381D01*
X116059524Y-86702381D01*
X115964286Y-86654762D01*
X115916667Y-86607143D01*
X152916667Y-95654762D02*
X153059524Y-95702381D01*
X153297620Y-95702381D01*
X153392858Y-95654762D01*
X153440477Y-95607143D01*
X153488096Y-95511905D01*
X153488096Y-95416667D01*
X153440477Y-95321429D01*
X153392858Y-95273810D01*
X153297620Y-95226190D01*
X153107143Y-95178571D01*
X153011905Y-95130952D01*
X152964286Y-95083333D01*
X152916667Y-94988095D01*
X152916667Y-94892857D01*
X152964286Y-94797619D01*
X153011905Y-94750000D01*
X153107143Y-94702381D01*
X153345239Y-94702381D01*
X153488096Y-94750000D01*
X153821429Y-94702381D02*
X154059524Y-95702381D01*
X154250001Y-94988095D01*
X154440477Y-95702381D01*
X154678572Y-94702381D01*
X155583334Y-95702381D02*
X155011905Y-95702381D01*
X155297619Y-95702381D02*
X155297619Y-94702381D01*
X155202381Y-94845238D01*
X155107143Y-94940476D01*
X155011905Y-94988095D01*
X145916667Y-95654762D02*
X146059524Y-95702381D01*
X146297620Y-95702381D01*
X146392858Y-95654762D01*
X146440477Y-95607143D01*
X146488096Y-95511905D01*
X146488096Y-95416667D01*
X146440477Y-95321429D01*
X146392858Y-95273810D01*
X146297620Y-95226190D01*
X146107143Y-95178571D01*
X146011905Y-95130952D01*
X145964286Y-95083333D01*
X145916667Y-94988095D01*
X145916667Y-94892857D01*
X145964286Y-94797619D01*
X146011905Y-94750000D01*
X146107143Y-94702381D01*
X146345239Y-94702381D01*
X146488096Y-94750000D01*
X146821429Y-94702381D02*
X147059524Y-95702381D01*
X147250001Y-94988095D01*
X147440477Y-95702381D01*
X147678572Y-94702381D01*
X148011905Y-94797619D02*
X148059524Y-94750000D01*
X148154762Y-94702381D01*
X148392858Y-94702381D01*
X148488096Y-94750000D01*
X148535715Y-94797619D01*
X148583334Y-94892857D01*
X148583334Y-94988095D01*
X148535715Y-95130952D01*
X147964286Y-95702381D01*
X148583334Y-95702381D01*
X138916667Y-95654762D02*
X139059524Y-95702381D01*
X139297620Y-95702381D01*
X139392858Y-95654762D01*
X139440477Y-95607143D01*
X139488096Y-95511905D01*
X139488096Y-95416667D01*
X139440477Y-95321429D01*
X139392858Y-95273810D01*
X139297620Y-95226190D01*
X139107143Y-95178571D01*
X139011905Y-95130952D01*
X138964286Y-95083333D01*
X138916667Y-94988095D01*
X138916667Y-94892857D01*
X138964286Y-94797619D01*
X139011905Y-94750000D01*
X139107143Y-94702381D01*
X139345239Y-94702381D01*
X139488096Y-94750000D01*
X139821429Y-94702381D02*
X140059524Y-95702381D01*
X140250001Y-94988095D01*
X140440477Y-95702381D01*
X140678572Y-94702381D01*
X140964286Y-94702381D02*
X141583334Y-94702381D01*
X141250000Y-95083333D01*
X141392858Y-95083333D01*
X141488096Y-95130952D01*
X141535715Y-95178571D01*
X141583334Y-95273810D01*
X141583334Y-95511905D01*
X141535715Y-95607143D01*
X141488096Y-95654762D01*
X141392858Y-95702381D01*
X141107143Y-95702381D01*
X141011905Y-95654762D01*
X140964286Y-95607143D01*
X101621905Y-87312381D02*
X101621905Y-86312381D01*
X102002858Y-86312381D01*
X102098096Y-86360000D01*
X102145715Y-86407619D01*
X102193334Y-86502857D01*
X102193334Y-86645714D01*
X102145715Y-86740952D01*
X102098096Y-86788571D01*
X102002858Y-86836190D01*
X101621905Y-86836190D01*
X103145715Y-87312381D02*
X102574286Y-87312381D01*
X102860000Y-87312381D02*
X102860000Y-86312381D01*
X102764762Y-86455238D01*
X102669524Y-86550476D01*
X102574286Y-86598095D01*
M02*
