M48
;DRILL file {KiCad 4.0.0-rc1-stable} date 3/16/2016 3:31:07 PM
;FORMAT={-:-/ absolute / inch / decimal}
FMAT,2
INCH,TZ
T1C0.028
T2C0.028
T3C0.030
T4C0.031
T5C0.032
T6C0.039
T7C0.040
T8C0.075
%
G90
G05
M72
T1
X4.1488Y-3.3894
X4.1488Y-3.4524
X4.1961Y-3.3579
X4.1961Y-3.4209
X4.1961Y-3.4839
T2
X4.3504Y-3.2776
X4.3551Y-3.75
X4.7504Y-3.2776
X4.7551Y-3.75
T3
X5.4398Y-3.3366
T4
X4.0945Y-3.7008
X4.1732Y-3.7008
X4.9429Y-3.3638
X4.9429Y-3.4638
X4.9429Y-3.5638
X4.9429Y-3.6638
X5.2429Y-3.3638
X5.2429Y-3.4638
X5.2429Y-3.5638
X5.2429Y-3.6638
T5
X5.4331Y-3.4646
X5.4331Y-3.7205
X5.6102Y-3.4646
X5.6102Y-3.7205
X5.7087Y-3.4646
X5.7087Y-3.7205
X5.8858Y-3.4646
X5.8858Y-3.7205
X5.9843Y-3.4646
X5.9843Y-3.7205
X6.1614Y-3.4646
X6.1614Y-3.7205
T6
X4.3504Y-3.3957
X4.3504Y-3.5138
X4.3504Y-3.6319
X4.7504Y-3.3957
X4.7504Y-3.5138
X4.7504Y-3.6319
T7
X5.5398Y-3.3366
X5.6398Y-3.3366
X5.7398Y-3.3366
X5.8398Y-3.3366
X5.9398Y-3.3366
X6.0398Y-3.3366
X6.1398Y-3.3366
T8
X3.9972Y-3.2772
X3.9972Y-3.5646
T0
M30
