G04 #@! TF.FileFunction,Legend,Bot*
%FSLAX46Y46*%
G04 Gerber Fmt 4.6, Leading zero omitted, Abs format (unit mm)*
G04 Created by KiCad (PCBNEW 4.0.0-rc1-stable) date 3/16/2016 3:52:32 PM*
%MOMM*%
G01*
G04 APERTURE LIST*
%ADD10C,0.100000*%
%ADD11C,0.180000*%
%ADD12C,0.300000*%
G04 APERTURE END LIST*
D10*
D11*
X156452382Y-86042381D02*
X155880953Y-86042381D01*
X156166668Y-87042381D02*
X156166668Y-86042381D01*
X155404763Y-87042381D02*
X155500001Y-86994762D01*
X155547620Y-86947143D01*
X155595239Y-86851905D01*
X155595239Y-86566190D01*
X155547620Y-86470952D01*
X155500001Y-86423333D01*
X155404763Y-86375714D01*
X155261905Y-86375714D01*
X155166667Y-86423333D01*
X155119048Y-86470952D01*
X155071429Y-86566190D01*
X155071429Y-86851905D01*
X155119048Y-86947143D01*
X155166667Y-86994762D01*
X155261905Y-87042381D01*
X155404763Y-87042381D01*
X153880953Y-87042381D02*
X153880953Y-86375714D01*
X153880953Y-86566190D02*
X153833334Y-86470952D01*
X153785715Y-86423333D01*
X153690477Y-86375714D01*
X153595238Y-86375714D01*
X152880952Y-86994762D02*
X152976190Y-87042381D01*
X153166667Y-87042381D01*
X153261905Y-86994762D01*
X153309524Y-86899524D01*
X153309524Y-86518571D01*
X153261905Y-86423333D01*
X153166667Y-86375714D01*
X152976190Y-86375714D01*
X152880952Y-86423333D01*
X152833333Y-86518571D01*
X152833333Y-86613810D01*
X153309524Y-86709048D01*
X152404762Y-86375714D02*
X152404762Y-87375714D01*
X152404762Y-86423333D02*
X152309524Y-86375714D01*
X152119047Y-86375714D01*
X152023809Y-86423333D01*
X151976190Y-86470952D01*
X151928571Y-86566190D01*
X151928571Y-86851905D01*
X151976190Y-86947143D01*
X152023809Y-86994762D01*
X152119047Y-87042381D01*
X152309524Y-87042381D01*
X152404762Y-86994762D01*
X151500000Y-87042381D02*
X151500000Y-86375714D01*
X151500000Y-86566190D02*
X151452381Y-86470952D01*
X151404762Y-86423333D01*
X151309524Y-86375714D01*
X151214285Y-86375714D01*
X150738095Y-87042381D02*
X150833333Y-86994762D01*
X150880952Y-86947143D01*
X150928571Y-86851905D01*
X150928571Y-86566190D01*
X150880952Y-86470952D01*
X150833333Y-86423333D01*
X150738095Y-86375714D01*
X150595237Y-86375714D01*
X150499999Y-86423333D01*
X150452380Y-86470952D01*
X150404761Y-86566190D01*
X150404761Y-86851905D01*
X150452380Y-86947143D01*
X150499999Y-86994762D01*
X150595237Y-87042381D01*
X150738095Y-87042381D01*
X149547618Y-86375714D02*
X149547618Y-87185238D01*
X149595237Y-87280476D01*
X149642856Y-87328095D01*
X149738095Y-87375714D01*
X149880952Y-87375714D01*
X149976190Y-87328095D01*
X149547618Y-86994762D02*
X149642856Y-87042381D01*
X149833333Y-87042381D01*
X149928571Y-86994762D01*
X149976190Y-86947143D01*
X150023809Y-86851905D01*
X150023809Y-86566190D01*
X149976190Y-86470952D01*
X149928571Y-86423333D01*
X149833333Y-86375714D01*
X149642856Y-86375714D01*
X149547618Y-86423333D01*
X149071428Y-87042381D02*
X149071428Y-86375714D01*
X149071428Y-86566190D02*
X149023809Y-86470952D01*
X148976190Y-86423333D01*
X148880952Y-86375714D01*
X148785713Y-86375714D01*
X148023808Y-87042381D02*
X148023808Y-86518571D01*
X148071427Y-86423333D01*
X148166665Y-86375714D01*
X148357142Y-86375714D01*
X148452380Y-86423333D01*
X148023808Y-86994762D02*
X148119046Y-87042381D01*
X148357142Y-87042381D01*
X148452380Y-86994762D01*
X148499999Y-86899524D01*
X148499999Y-86804286D01*
X148452380Y-86709048D01*
X148357142Y-86661429D01*
X148119046Y-86661429D01*
X148023808Y-86613810D01*
X147547618Y-87042381D02*
X147547618Y-86375714D01*
X147547618Y-86470952D02*
X147499999Y-86423333D01*
X147404761Y-86375714D01*
X147261903Y-86375714D01*
X147166665Y-86423333D01*
X147119046Y-86518571D01*
X147119046Y-87042381D01*
X147119046Y-86518571D02*
X147071427Y-86423333D01*
X146976189Y-86375714D01*
X146833332Y-86375714D01*
X146738094Y-86423333D01*
X146690475Y-86518571D01*
X146690475Y-87042381D01*
X145595237Y-86375714D02*
X145214285Y-86375714D01*
X145452380Y-86042381D02*
X145452380Y-86899524D01*
X145404761Y-86994762D01*
X145309523Y-87042381D01*
X145214285Y-87042381D01*
X144880951Y-87042381D02*
X144880951Y-86042381D01*
X144452379Y-87042381D02*
X144452379Y-86518571D01*
X144499998Y-86423333D01*
X144595236Y-86375714D01*
X144738094Y-86375714D01*
X144833332Y-86423333D01*
X144880951Y-86470952D01*
X143976189Y-87042381D02*
X143976189Y-86375714D01*
X143976189Y-86042381D02*
X144023808Y-86090000D01*
X143976189Y-86137619D01*
X143928570Y-86090000D01*
X143976189Y-86042381D01*
X143976189Y-86137619D01*
X143547618Y-86994762D02*
X143452380Y-87042381D01*
X143261904Y-87042381D01*
X143166665Y-86994762D01*
X143119046Y-86899524D01*
X143119046Y-86851905D01*
X143166665Y-86756667D01*
X143261904Y-86709048D01*
X143404761Y-86709048D01*
X143499999Y-86661429D01*
X143547618Y-86566190D01*
X143547618Y-86518571D01*
X143499999Y-86423333D01*
X143404761Y-86375714D01*
X143261904Y-86375714D01*
X143166665Y-86423333D01*
X141928570Y-87042381D02*
X141928570Y-86042381D01*
X141928570Y-86423333D02*
X141833332Y-86375714D01*
X141642855Y-86375714D01*
X141547617Y-86423333D01*
X141499998Y-86470952D01*
X141452379Y-86566190D01*
X141452379Y-86851905D01*
X141499998Y-86947143D01*
X141547617Y-86994762D01*
X141642855Y-87042381D01*
X141833332Y-87042381D01*
X141928570Y-86994762D01*
X140880951Y-87042381D02*
X140976189Y-86994762D01*
X141023808Y-86947143D01*
X141071427Y-86851905D01*
X141071427Y-86566190D01*
X141023808Y-86470952D01*
X140976189Y-86423333D01*
X140880951Y-86375714D01*
X140738093Y-86375714D01*
X140642855Y-86423333D01*
X140595236Y-86470952D01*
X140547617Y-86566190D01*
X140547617Y-86851905D01*
X140595236Y-86947143D01*
X140642855Y-86994762D01*
X140738093Y-87042381D01*
X140880951Y-87042381D01*
X139690474Y-87042381D02*
X139690474Y-86518571D01*
X139738093Y-86423333D01*
X139833331Y-86375714D01*
X140023808Y-86375714D01*
X140119046Y-86423333D01*
X139690474Y-86994762D02*
X139785712Y-87042381D01*
X140023808Y-87042381D01*
X140119046Y-86994762D01*
X140166665Y-86899524D01*
X140166665Y-86804286D01*
X140119046Y-86709048D01*
X140023808Y-86661429D01*
X139785712Y-86661429D01*
X139690474Y-86613810D01*
X139214284Y-87042381D02*
X139214284Y-86375714D01*
X139214284Y-86566190D02*
X139166665Y-86470952D01*
X139119046Y-86423333D01*
X139023808Y-86375714D01*
X138928569Y-86375714D01*
X138166664Y-87042381D02*
X138166664Y-86042381D01*
X138166664Y-86994762D02*
X138261902Y-87042381D01*
X138452379Y-87042381D01*
X138547617Y-86994762D01*
X138595236Y-86947143D01*
X138642855Y-86851905D01*
X138642855Y-86566190D01*
X138595236Y-86470952D01*
X138547617Y-86423333D01*
X138452379Y-86375714D01*
X138261902Y-86375714D01*
X138166664Y-86423333D01*
X137642855Y-86994762D02*
X137642855Y-87042381D01*
X137690474Y-87137619D01*
X137738093Y-87185238D01*
X157214287Y-89535714D02*
X156976192Y-90202381D01*
X156738096Y-89535714D01*
X156357144Y-90202381D02*
X156357144Y-89535714D01*
X156357144Y-89202381D02*
X156404763Y-89250000D01*
X156357144Y-89297619D01*
X156309525Y-89250000D01*
X156357144Y-89202381D01*
X156357144Y-89297619D01*
X155500001Y-90154762D02*
X155595239Y-90202381D01*
X155785716Y-90202381D01*
X155880954Y-90154762D01*
X155928573Y-90059524D01*
X155928573Y-89678571D01*
X155880954Y-89583333D01*
X155785716Y-89535714D01*
X155595239Y-89535714D01*
X155500001Y-89583333D01*
X155452382Y-89678571D01*
X155452382Y-89773810D01*
X155928573Y-89869048D01*
X155119049Y-89535714D02*
X154928573Y-90202381D01*
X154738096Y-89726190D01*
X154547620Y-90202381D01*
X154357144Y-89535714D01*
X153357144Y-89535714D02*
X152976192Y-89535714D01*
X153214287Y-89202381D02*
X153214287Y-90059524D01*
X153166668Y-90154762D01*
X153071430Y-90202381D01*
X152976192Y-90202381D01*
X152642858Y-90202381D02*
X152642858Y-89202381D01*
X152214286Y-90202381D02*
X152214286Y-89678571D01*
X152261905Y-89583333D01*
X152357143Y-89535714D01*
X152500001Y-89535714D01*
X152595239Y-89583333D01*
X152642858Y-89630952D01*
X151357143Y-90154762D02*
X151452381Y-90202381D01*
X151642858Y-90202381D01*
X151738096Y-90154762D01*
X151785715Y-90059524D01*
X151785715Y-89678571D01*
X151738096Y-89583333D01*
X151642858Y-89535714D01*
X151452381Y-89535714D01*
X151357143Y-89583333D01*
X151309524Y-89678571D01*
X151309524Y-89773810D01*
X151785715Y-89869048D01*
X149690476Y-90202381D02*
X149690476Y-89202381D01*
X149690476Y-90154762D02*
X149785714Y-90202381D01*
X149976191Y-90202381D01*
X150071429Y-90154762D01*
X150119048Y-90107143D01*
X150166667Y-90011905D01*
X150166667Y-89726190D01*
X150119048Y-89630952D01*
X150071429Y-89583333D01*
X149976191Y-89535714D01*
X149785714Y-89535714D01*
X149690476Y-89583333D01*
X149071429Y-90202381D02*
X149166667Y-90154762D01*
X149214286Y-90107143D01*
X149261905Y-90011905D01*
X149261905Y-89726190D01*
X149214286Y-89630952D01*
X149166667Y-89583333D01*
X149071429Y-89535714D01*
X148928571Y-89535714D01*
X148833333Y-89583333D01*
X148785714Y-89630952D01*
X148738095Y-89726190D01*
X148738095Y-90011905D01*
X148785714Y-90107143D01*
X148833333Y-90154762D01*
X148928571Y-90202381D01*
X149071429Y-90202381D01*
X147880952Y-90154762D02*
X147976190Y-90202381D01*
X148166667Y-90202381D01*
X148261905Y-90154762D01*
X148309524Y-90107143D01*
X148357143Y-90011905D01*
X148357143Y-89726190D01*
X148309524Y-89630952D01*
X148261905Y-89583333D01*
X148166667Y-89535714D01*
X147976190Y-89535714D01*
X147880952Y-89583333D01*
X147023809Y-89535714D02*
X147023809Y-90202381D01*
X147452381Y-89535714D02*
X147452381Y-90059524D01*
X147404762Y-90154762D01*
X147309524Y-90202381D01*
X147166666Y-90202381D01*
X147071428Y-90154762D01*
X147023809Y-90107143D01*
X146547619Y-90202381D02*
X146547619Y-89535714D01*
X146547619Y-89630952D02*
X146500000Y-89583333D01*
X146404762Y-89535714D01*
X146261904Y-89535714D01*
X146166666Y-89583333D01*
X146119047Y-89678571D01*
X146119047Y-90202381D01*
X146119047Y-89678571D02*
X146071428Y-89583333D01*
X145976190Y-89535714D01*
X145833333Y-89535714D01*
X145738095Y-89583333D01*
X145690476Y-89678571D01*
X145690476Y-90202381D01*
X144833333Y-90154762D02*
X144928571Y-90202381D01*
X145119048Y-90202381D01*
X145214286Y-90154762D01*
X145261905Y-90059524D01*
X145261905Y-89678571D01*
X145214286Y-89583333D01*
X145119048Y-89535714D01*
X144928571Y-89535714D01*
X144833333Y-89583333D01*
X144785714Y-89678571D01*
X144785714Y-89773810D01*
X145261905Y-89869048D01*
X144357143Y-89535714D02*
X144357143Y-90202381D01*
X144357143Y-89630952D02*
X144309524Y-89583333D01*
X144214286Y-89535714D01*
X144071428Y-89535714D01*
X143976190Y-89583333D01*
X143928571Y-89678571D01*
X143928571Y-90202381D01*
X143595238Y-89535714D02*
X143214286Y-89535714D01*
X143452381Y-89202381D02*
X143452381Y-90059524D01*
X143404762Y-90154762D01*
X143309524Y-90202381D01*
X143214286Y-90202381D01*
X142452380Y-90202381D02*
X142452380Y-89678571D01*
X142499999Y-89583333D01*
X142595237Y-89535714D01*
X142785714Y-89535714D01*
X142880952Y-89583333D01*
X142452380Y-90154762D02*
X142547618Y-90202381D01*
X142785714Y-90202381D01*
X142880952Y-90154762D01*
X142928571Y-90059524D01*
X142928571Y-89964286D01*
X142880952Y-89869048D01*
X142785714Y-89821429D01*
X142547618Y-89821429D01*
X142452380Y-89773810D01*
X142119047Y-89535714D02*
X141738095Y-89535714D01*
X141976190Y-89202381D02*
X141976190Y-90059524D01*
X141928571Y-90154762D01*
X141833333Y-90202381D01*
X141738095Y-90202381D01*
X141404761Y-90202381D02*
X141404761Y-89535714D01*
X141404761Y-89202381D02*
X141452380Y-89250000D01*
X141404761Y-89297619D01*
X141357142Y-89250000D01*
X141404761Y-89202381D01*
X141404761Y-89297619D01*
X140785714Y-90202381D02*
X140880952Y-90154762D01*
X140928571Y-90107143D01*
X140976190Y-90011905D01*
X140976190Y-89726190D01*
X140928571Y-89630952D01*
X140880952Y-89583333D01*
X140785714Y-89535714D01*
X140642856Y-89535714D01*
X140547618Y-89583333D01*
X140499999Y-89630952D01*
X140452380Y-89726190D01*
X140452380Y-90011905D01*
X140499999Y-90107143D01*
X140547618Y-90154762D01*
X140642856Y-90202381D01*
X140785714Y-90202381D01*
X140023809Y-89535714D02*
X140023809Y-90202381D01*
X140023809Y-89630952D02*
X139976190Y-89583333D01*
X139880952Y-89535714D01*
X139738094Y-89535714D01*
X139642856Y-89583333D01*
X139595237Y-89678571D01*
X139595237Y-90202381D01*
X137928570Y-90202381D02*
X137928570Y-89678571D01*
X137976189Y-89583333D01*
X138071427Y-89535714D01*
X138261904Y-89535714D01*
X138357142Y-89583333D01*
X137928570Y-90154762D02*
X138023808Y-90202381D01*
X138261904Y-90202381D01*
X138357142Y-90154762D01*
X138404761Y-90059524D01*
X138404761Y-89964286D01*
X138357142Y-89869048D01*
X138261904Y-89821429D01*
X138023808Y-89821429D01*
X137928570Y-89773810D01*
X137595237Y-89535714D02*
X137214285Y-89535714D01*
X137452380Y-89202381D02*
X137452380Y-90059524D01*
X137404761Y-90154762D01*
X137309523Y-90202381D01*
X137214285Y-90202381D01*
X136833332Y-90154762D02*
X136833332Y-90202381D01*
X136880951Y-90297619D01*
X136928570Y-90345238D01*
X150976190Y-91115714D02*
X150976190Y-91925238D01*
X151023809Y-92020476D01*
X151071428Y-92068095D01*
X151166667Y-92115714D01*
X151309524Y-92115714D01*
X151404762Y-92068095D01*
X150976190Y-91734762D02*
X151071428Y-91782381D01*
X151261905Y-91782381D01*
X151357143Y-91734762D01*
X151404762Y-91687143D01*
X151452381Y-91591905D01*
X151452381Y-91306190D01*
X151404762Y-91210952D01*
X151357143Y-91163333D01*
X151261905Y-91115714D01*
X151071428Y-91115714D01*
X150976190Y-91163333D01*
X150500000Y-91782381D02*
X150500000Y-91115714D01*
X150500000Y-90782381D02*
X150547619Y-90830000D01*
X150500000Y-90877619D01*
X150452381Y-90830000D01*
X150500000Y-90782381D01*
X150500000Y-90877619D01*
X150166667Y-91115714D02*
X149785715Y-91115714D01*
X150023810Y-90782381D02*
X150023810Y-91639524D01*
X149976191Y-91734762D01*
X149880953Y-91782381D01*
X149785715Y-91782381D01*
X149452381Y-91782381D02*
X149452381Y-90782381D01*
X149023809Y-91782381D02*
X149023809Y-91258571D01*
X149071428Y-91163333D01*
X149166666Y-91115714D01*
X149309524Y-91115714D01*
X149404762Y-91163333D01*
X149452381Y-91210952D01*
X148119047Y-91115714D02*
X148119047Y-91782381D01*
X148547619Y-91115714D02*
X148547619Y-91639524D01*
X148500000Y-91734762D01*
X148404762Y-91782381D01*
X148261904Y-91782381D01*
X148166666Y-91734762D01*
X148119047Y-91687143D01*
X147642857Y-91782381D02*
X147642857Y-90782381D01*
X147642857Y-91163333D02*
X147547619Y-91115714D01*
X147357142Y-91115714D01*
X147261904Y-91163333D01*
X147214285Y-91210952D01*
X147166666Y-91306190D01*
X147166666Y-91591905D01*
X147214285Y-91687143D01*
X147261904Y-91734762D01*
X147357142Y-91782381D01*
X147547619Y-91782381D01*
X147642857Y-91734762D01*
X146738095Y-91687143D02*
X146690476Y-91734762D01*
X146738095Y-91782381D01*
X146785714Y-91734762D01*
X146738095Y-91687143D01*
X146738095Y-91782381D01*
X145833333Y-91734762D02*
X145928571Y-91782381D01*
X146119048Y-91782381D01*
X146214286Y-91734762D01*
X146261905Y-91687143D01*
X146309524Y-91591905D01*
X146309524Y-91306190D01*
X146261905Y-91210952D01*
X146214286Y-91163333D01*
X146119048Y-91115714D01*
X145928571Y-91115714D01*
X145833333Y-91163333D01*
X145261905Y-91782381D02*
X145357143Y-91734762D01*
X145404762Y-91687143D01*
X145452381Y-91591905D01*
X145452381Y-91306190D01*
X145404762Y-91210952D01*
X145357143Y-91163333D01*
X145261905Y-91115714D01*
X145119047Y-91115714D01*
X145023809Y-91163333D01*
X144976190Y-91210952D01*
X144928571Y-91306190D01*
X144928571Y-91591905D01*
X144976190Y-91687143D01*
X145023809Y-91734762D01*
X145119047Y-91782381D01*
X145261905Y-91782381D01*
X144500000Y-91782381D02*
X144500000Y-91115714D01*
X144500000Y-91210952D02*
X144452381Y-91163333D01*
X144357143Y-91115714D01*
X144214285Y-91115714D01*
X144119047Y-91163333D01*
X144071428Y-91258571D01*
X144071428Y-91782381D01*
X144071428Y-91258571D02*
X144023809Y-91163333D01*
X143928571Y-91115714D01*
X143785714Y-91115714D01*
X143690476Y-91163333D01*
X143642857Y-91258571D01*
X143642857Y-91782381D01*
X142452381Y-90734762D02*
X143309524Y-92020476D01*
X155738096Y-93267143D02*
X155785715Y-93314762D01*
X155928572Y-93362381D01*
X156023810Y-93362381D01*
X156166668Y-93314762D01*
X156261906Y-93219524D01*
X156309525Y-93124286D01*
X156357144Y-92933810D01*
X156357144Y-92790952D01*
X156309525Y-92600476D01*
X156261906Y-92505238D01*
X156166668Y-92410000D01*
X156023810Y-92362381D01*
X155928572Y-92362381D01*
X155785715Y-92410000D01*
X155738096Y-92457619D01*
X154880953Y-93362381D02*
X154880953Y-92838571D01*
X154928572Y-92743333D01*
X155023810Y-92695714D01*
X155214287Y-92695714D01*
X155309525Y-92743333D01*
X154880953Y-93314762D02*
X154976191Y-93362381D01*
X155214287Y-93362381D01*
X155309525Y-93314762D01*
X155357144Y-93219524D01*
X155357144Y-93124286D01*
X155309525Y-93029048D01*
X155214287Y-92981429D01*
X154976191Y-92981429D01*
X154880953Y-92933810D01*
X154404763Y-93362381D02*
X154404763Y-92695714D01*
X154404763Y-92790952D02*
X154357144Y-92743333D01*
X154261906Y-92695714D01*
X154119048Y-92695714D01*
X154023810Y-92743333D01*
X153976191Y-92838571D01*
X153976191Y-93362381D01*
X153976191Y-92838571D02*
X153928572Y-92743333D01*
X153833334Y-92695714D01*
X153690477Y-92695714D01*
X153595239Y-92743333D01*
X153547620Y-92838571D01*
X153547620Y-93362381D01*
X152690477Y-93314762D02*
X152785715Y-93362381D01*
X152976192Y-93362381D01*
X153071430Y-93314762D01*
X153119049Y-93219524D01*
X153119049Y-92838571D01*
X153071430Y-92743333D01*
X152976192Y-92695714D01*
X152785715Y-92695714D01*
X152690477Y-92743333D01*
X152642858Y-92838571D01*
X152642858Y-92933810D01*
X153119049Y-93029048D01*
X152214287Y-93362381D02*
X152214287Y-92695714D01*
X152214287Y-92886190D02*
X152166668Y-92790952D01*
X152119049Y-92743333D01*
X152023811Y-92695714D01*
X151928572Y-92695714D01*
X151452382Y-93362381D02*
X151547620Y-93314762D01*
X151595239Y-93267143D01*
X151642858Y-93171905D01*
X151642858Y-92886190D01*
X151595239Y-92790952D01*
X151547620Y-92743333D01*
X151452382Y-92695714D01*
X151309524Y-92695714D01*
X151214286Y-92743333D01*
X151166667Y-92790952D01*
X151119048Y-92886190D01*
X151119048Y-93171905D01*
X151166667Y-93267143D01*
X151214286Y-93314762D01*
X151309524Y-93362381D01*
X151452382Y-93362381D01*
X150690477Y-92695714D02*
X150690477Y-93362381D01*
X150690477Y-92790952D02*
X150642858Y-92743333D01*
X150547620Y-92695714D01*
X150404762Y-92695714D01*
X150309524Y-92743333D01*
X150261905Y-92838571D01*
X150261905Y-93362381D01*
X149785715Y-93362381D02*
X149785715Y-92362381D01*
X149547620Y-92362381D01*
X149404762Y-92410000D01*
X149309524Y-92505238D01*
X149261905Y-92600476D01*
X149214286Y-92790952D01*
X149214286Y-92933810D01*
X149261905Y-93124286D01*
X149309524Y-93219524D01*
X149404762Y-93314762D01*
X149547620Y-93362381D01*
X149785715Y-93362381D01*
X148404762Y-93314762D02*
X148500000Y-93362381D01*
X148690477Y-93362381D01*
X148785715Y-93314762D01*
X148833334Y-93219524D01*
X148833334Y-92838571D01*
X148785715Y-92743333D01*
X148690477Y-92695714D01*
X148500000Y-92695714D01*
X148404762Y-92743333D01*
X148357143Y-92838571D01*
X148357143Y-92933810D01*
X148833334Y-93029048D01*
X148023810Y-92695714D02*
X147785715Y-93362381D01*
X147547619Y-92695714D01*
X147166667Y-93362381D02*
X147166667Y-92695714D01*
X147166667Y-92362381D02*
X147214286Y-92410000D01*
X147166667Y-92457619D01*
X147119048Y-92410000D01*
X147166667Y-92362381D01*
X147166667Y-92457619D01*
X146690477Y-92695714D02*
X146690477Y-93362381D01*
X146690477Y-92790952D02*
X146642858Y-92743333D01*
X146547620Y-92695714D01*
X146404762Y-92695714D01*
X146309524Y-92743333D01*
X146261905Y-92838571D01*
X146261905Y-93362381D01*
X145404762Y-93314762D02*
X145500000Y-93362381D01*
X145690477Y-93362381D01*
X145785715Y-93314762D01*
X145833334Y-93219524D01*
X145833334Y-92838571D01*
X145785715Y-92743333D01*
X145690477Y-92695714D01*
X145500000Y-92695714D01*
X145404762Y-92743333D01*
X145357143Y-92838571D01*
X145357143Y-92933810D01*
X145833334Y-93029048D01*
X144214286Y-92314762D02*
X145071429Y-93600476D01*
X143880953Y-93362381D02*
X143880953Y-92362381D01*
X143785715Y-92981429D02*
X143500000Y-93362381D01*
X143500000Y-92695714D02*
X143880953Y-93076667D01*
X142690476Y-93314762D02*
X142785714Y-93362381D01*
X142976191Y-93362381D01*
X143071429Y-93314762D01*
X143119048Y-93219524D01*
X143119048Y-92838571D01*
X143071429Y-92743333D01*
X142976191Y-92695714D01*
X142785714Y-92695714D01*
X142690476Y-92743333D01*
X142642857Y-92838571D01*
X142642857Y-92933810D01*
X143119048Y-93029048D01*
X142309524Y-92695714D02*
X142071429Y-93362381D01*
X141833333Y-92695714D02*
X142071429Y-93362381D01*
X142166667Y-93600476D01*
X142214286Y-93648095D01*
X142309524Y-93695714D01*
X141452381Y-93362381D02*
X141452381Y-92362381D01*
X141452381Y-92743333D02*
X141357143Y-92695714D01*
X141166666Y-92695714D01*
X141071428Y-92743333D01*
X141023809Y-92790952D01*
X140976190Y-92886190D01*
X140976190Y-93171905D01*
X141023809Y-93267143D01*
X141071428Y-93314762D01*
X141166666Y-93362381D01*
X141357143Y-93362381D01*
X141452381Y-93314762D01*
X140404762Y-93362381D02*
X140500000Y-93314762D01*
X140547619Y-93267143D01*
X140595238Y-93171905D01*
X140595238Y-92886190D01*
X140547619Y-92790952D01*
X140500000Y-92743333D01*
X140404762Y-92695714D01*
X140261904Y-92695714D01*
X140166666Y-92743333D01*
X140119047Y-92790952D01*
X140071428Y-92886190D01*
X140071428Y-93171905D01*
X140119047Y-93267143D01*
X140166666Y-93314762D01*
X140261904Y-93362381D01*
X140404762Y-93362381D01*
X139214285Y-93362381D02*
X139214285Y-92838571D01*
X139261904Y-92743333D01*
X139357142Y-92695714D01*
X139547619Y-92695714D01*
X139642857Y-92743333D01*
X139214285Y-93314762D02*
X139309523Y-93362381D01*
X139547619Y-93362381D01*
X139642857Y-93314762D01*
X139690476Y-93219524D01*
X139690476Y-93124286D01*
X139642857Y-93029048D01*
X139547619Y-92981429D01*
X139309523Y-92981429D01*
X139214285Y-92933810D01*
X138738095Y-93362381D02*
X138738095Y-92695714D01*
X138738095Y-92886190D02*
X138690476Y-92790952D01*
X138642857Y-92743333D01*
X138547619Y-92695714D01*
X138452380Y-92695714D01*
X137690475Y-93362381D02*
X137690475Y-92362381D01*
X137690475Y-93314762D02*
X137785713Y-93362381D01*
X137976190Y-93362381D01*
X138071428Y-93314762D01*
X138119047Y-93267143D01*
X138166666Y-93171905D01*
X138166666Y-92886190D01*
X138119047Y-92790952D01*
X138071428Y-92743333D01*
X137976190Y-92695714D01*
X137785713Y-92695714D01*
X137690475Y-92743333D01*
D12*
X123915476Y-83119049D02*
X122665476Y-83119049D01*
X122665476Y-83595240D01*
X122725000Y-83714287D01*
X122784524Y-83773811D01*
X122903571Y-83833335D01*
X123082143Y-83833335D01*
X123201190Y-83773811D01*
X123260714Y-83714287D01*
X123320238Y-83595240D01*
X123320238Y-83119049D01*
X123915476Y-84547620D02*
X123855952Y-84428573D01*
X123736905Y-84369049D01*
X122665476Y-84369049D01*
X123082143Y-85559525D02*
X123915476Y-85559525D01*
X123082143Y-85023811D02*
X123736905Y-85023811D01*
X123855952Y-85083335D01*
X123915476Y-85202382D01*
X123915476Y-85380954D01*
X123855952Y-85500002D01*
X123796429Y-85559525D01*
X123082143Y-86690477D02*
X124094048Y-86690477D01*
X124213095Y-86630954D01*
X124272619Y-86571430D01*
X124332143Y-86452382D01*
X124332143Y-86273811D01*
X124272619Y-86154763D01*
X123855952Y-86690477D02*
X123915476Y-86571430D01*
X123915476Y-86333334D01*
X123855952Y-86214287D01*
X123796429Y-86154763D01*
X123677381Y-86095239D01*
X123320238Y-86095239D01*
X123201190Y-86154763D01*
X123141667Y-86214287D01*
X123082143Y-86333334D01*
X123082143Y-86571430D01*
X123141667Y-86690477D01*
X123915476Y-88238096D02*
X123082143Y-88238096D01*
X122665476Y-88238096D02*
X122725000Y-88178572D01*
X122784524Y-88238096D01*
X122725000Y-88297620D01*
X122665476Y-88238096D01*
X122784524Y-88238096D01*
X123082143Y-88833334D02*
X123915476Y-88833334D01*
X123201190Y-88833334D02*
X123141667Y-88892858D01*
X123082143Y-89011905D01*
X123082143Y-89190477D01*
X123141667Y-89309525D01*
X123260714Y-89369048D01*
X123915476Y-89369048D01*
X123855952Y-90023810D02*
X123915476Y-90023810D01*
X124034524Y-89964286D01*
X124094048Y-89904762D01*
X123915476Y-91690476D02*
X123855952Y-91571429D01*
X123796429Y-91511905D01*
X123677381Y-91452381D01*
X123320238Y-91452381D01*
X123201190Y-91511905D01*
X123141667Y-91571429D01*
X123082143Y-91690476D01*
X123082143Y-91869048D01*
X123141667Y-91988096D01*
X123201190Y-92047619D01*
X123320238Y-92107143D01*
X123677381Y-92107143D01*
X123796429Y-92047619D01*
X123855952Y-91988096D01*
X123915476Y-91869048D01*
X123915476Y-91690476D01*
X123082143Y-92642857D02*
X124332143Y-92642857D01*
X123141667Y-92642857D02*
X123082143Y-92761905D01*
X123082143Y-93000000D01*
X123141667Y-93119048D01*
X123201190Y-93178571D01*
X123320238Y-93238095D01*
X123677381Y-93238095D01*
X123796429Y-93178571D01*
X123855952Y-93119048D01*
X123915476Y-93000000D01*
X123915476Y-92761905D01*
X123855952Y-92642857D01*
X123855952Y-94250000D02*
X123915476Y-94130952D01*
X123915476Y-93892857D01*
X123855952Y-93773809D01*
X123736905Y-93714285D01*
X123260714Y-93714285D01*
X123141667Y-93773809D01*
X123082143Y-93892857D01*
X123082143Y-94130952D01*
X123141667Y-94250000D01*
X123260714Y-94309523D01*
X123379762Y-94309523D01*
X123498810Y-93714285D01*
X123082143Y-94845238D02*
X123915476Y-94845238D01*
X123201190Y-94845238D02*
X123141667Y-94904762D01*
X123082143Y-95023809D01*
X123082143Y-95202381D01*
X123141667Y-95321429D01*
X123260714Y-95380952D01*
X123915476Y-95380952D01*
X127182143Y-81958334D02*
X127182143Y-82434524D01*
X126765476Y-82136905D02*
X127836905Y-82136905D01*
X127955952Y-82196429D01*
X128015476Y-82315476D01*
X128015476Y-82434524D01*
X127955952Y-83327382D02*
X128015476Y-83208334D01*
X128015476Y-82970239D01*
X127955952Y-82851191D01*
X127836905Y-82791667D01*
X127360714Y-82791667D01*
X127241667Y-82851191D01*
X127182143Y-82970239D01*
X127182143Y-83208334D01*
X127241667Y-83327382D01*
X127360714Y-83386905D01*
X127479762Y-83386905D01*
X127598810Y-82791667D01*
X128015476Y-83803572D02*
X127182143Y-84458334D01*
X127182143Y-83803572D02*
X128015476Y-84458334D01*
X127182143Y-84755954D02*
X127182143Y-85232144D01*
X126765476Y-84934525D02*
X127836905Y-84934525D01*
X127955952Y-84994049D01*
X128015476Y-85113096D01*
X128015476Y-85232144D01*
X127955952Y-87077383D02*
X128015476Y-86958335D01*
X128015476Y-86720240D01*
X127955952Y-86601192D01*
X127836905Y-86541668D01*
X127360714Y-86541668D01*
X127241667Y-86601192D01*
X127182143Y-86720240D01*
X127182143Y-86958335D01*
X127241667Y-87077383D01*
X127360714Y-87136906D01*
X127479762Y-87136906D01*
X127598810Y-86541668D01*
X128015476Y-88208335D02*
X126765476Y-88208335D01*
X127955952Y-88208335D02*
X128015476Y-88089288D01*
X128015476Y-87851192D01*
X127955952Y-87732145D01*
X127896429Y-87672621D01*
X127777381Y-87613097D01*
X127420238Y-87613097D01*
X127301190Y-87672621D01*
X127241667Y-87732145D01*
X127182143Y-87851192D01*
X127182143Y-88089288D01*
X127241667Y-88208335D01*
X128015476Y-88803573D02*
X127182143Y-88803573D01*
X126765476Y-88803573D02*
X126825000Y-88744049D01*
X126884524Y-88803573D01*
X126825000Y-88863097D01*
X126765476Y-88803573D01*
X126884524Y-88803573D01*
X127182143Y-89220240D02*
X127182143Y-89696430D01*
X126765476Y-89398811D02*
X127836905Y-89398811D01*
X127955952Y-89458335D01*
X128015476Y-89577382D01*
X128015476Y-89696430D01*
X128015476Y-90291668D02*
X127955952Y-90172621D01*
X127896429Y-90113097D01*
X127777381Y-90053573D01*
X127420238Y-90053573D01*
X127301190Y-90113097D01*
X127241667Y-90172621D01*
X127182143Y-90291668D01*
X127182143Y-90470240D01*
X127241667Y-90589288D01*
X127301190Y-90648811D01*
X127420238Y-90708335D01*
X127777381Y-90708335D01*
X127896429Y-90648811D01*
X127955952Y-90589288D01*
X128015476Y-90470240D01*
X128015476Y-90291668D01*
X128015476Y-91244049D02*
X127182143Y-91244049D01*
X127420238Y-91244049D02*
X127301190Y-91303573D01*
X127241667Y-91363097D01*
X127182143Y-91482144D01*
X127182143Y-91601192D01*
X127955952Y-92077383D02*
X128015476Y-92077383D01*
X128134524Y-92017859D01*
X128194048Y-91958335D01*
X128015476Y-94101192D02*
X127360714Y-94101192D01*
X127241667Y-94041669D01*
X127182143Y-93922621D01*
X127182143Y-93684526D01*
X127241667Y-93565478D01*
X127955952Y-94101192D02*
X128015476Y-93982145D01*
X128015476Y-93684526D01*
X127955952Y-93565478D01*
X127836905Y-93505954D01*
X127717857Y-93505954D01*
X127598810Y-93565478D01*
X127539286Y-93684526D01*
X127539286Y-93982145D01*
X127479762Y-94101192D01*
X127182143Y-94696430D02*
X128015476Y-94696430D01*
X127301190Y-94696430D02*
X127241667Y-94755954D01*
X127182143Y-94875001D01*
X127182143Y-95053573D01*
X127241667Y-95172621D01*
X127360714Y-95232144D01*
X128015476Y-95232144D01*
X128015476Y-96363096D02*
X126765476Y-96363096D01*
X127955952Y-96363096D02*
X128015476Y-96244049D01*
X128015476Y-96005953D01*
X127955952Y-95886906D01*
X127896429Y-95827382D01*
X127777381Y-95767858D01*
X127420238Y-95767858D01*
X127301190Y-95827382D01*
X127241667Y-95886906D01*
X127182143Y-96005953D01*
X127182143Y-96244049D01*
X127241667Y-96363096D01*
X130065476Y-84696430D02*
X128815476Y-84696430D01*
X130065476Y-85232144D02*
X129410714Y-85232144D01*
X129291667Y-85172621D01*
X129232143Y-85053573D01*
X129232143Y-84875001D01*
X129291667Y-84755954D01*
X129351190Y-84696430D01*
X130065476Y-86005953D02*
X130005952Y-85886906D01*
X129946429Y-85827382D01*
X129827381Y-85767858D01*
X129470238Y-85767858D01*
X129351190Y-85827382D01*
X129291667Y-85886906D01*
X129232143Y-86005953D01*
X129232143Y-86184525D01*
X129291667Y-86303573D01*
X129351190Y-86363096D01*
X129470238Y-86422620D01*
X129827381Y-86422620D01*
X129946429Y-86363096D01*
X130005952Y-86303573D01*
X130065476Y-86184525D01*
X130065476Y-86005953D01*
X130065476Y-87136905D02*
X130005952Y-87017858D01*
X129886905Y-86958334D01*
X128815476Y-86958334D01*
X130065476Y-88148810D02*
X128815476Y-88148810D01*
X130005952Y-88148810D02*
X130065476Y-88029763D01*
X130065476Y-87791667D01*
X130005952Y-87672620D01*
X129946429Y-87613096D01*
X129827381Y-87553572D01*
X129470238Y-87553572D01*
X129351190Y-87613096D01*
X129291667Y-87672620D01*
X129232143Y-87791667D01*
X129232143Y-88029763D01*
X129291667Y-88148810D01*
X130065476Y-90232143D02*
X128815476Y-90232143D01*
X130005952Y-90232143D02*
X130065476Y-90113096D01*
X130065476Y-89875000D01*
X130005952Y-89755953D01*
X129946429Y-89696429D01*
X129827381Y-89636905D01*
X129470238Y-89636905D01*
X129351190Y-89696429D01*
X129291667Y-89755953D01*
X129232143Y-89875000D01*
X129232143Y-90113096D01*
X129291667Y-90232143D01*
X130065476Y-91005952D02*
X130005952Y-90886905D01*
X129946429Y-90827381D01*
X129827381Y-90767857D01*
X129470238Y-90767857D01*
X129351190Y-90827381D01*
X129291667Y-90886905D01*
X129232143Y-91005952D01*
X129232143Y-91184524D01*
X129291667Y-91303572D01*
X129351190Y-91363095D01*
X129470238Y-91422619D01*
X129827381Y-91422619D01*
X129946429Y-91363095D01*
X130005952Y-91303572D01*
X130065476Y-91184524D01*
X130065476Y-91005952D01*
X129232143Y-91839285D02*
X130065476Y-92077381D01*
X129470238Y-92315476D01*
X130065476Y-92553571D01*
X129232143Y-92791666D01*
X129232143Y-93267857D02*
X130065476Y-93267857D01*
X129351190Y-93267857D02*
X129291667Y-93327381D01*
X129232143Y-93446428D01*
X129232143Y-93625000D01*
X129291667Y-93744048D01*
X129410714Y-93803571D01*
X130065476Y-93803571D01*
X132115476Y-82970239D02*
X131282143Y-82970239D01*
X131401190Y-82970239D02*
X131341667Y-83029763D01*
X131282143Y-83148810D01*
X131282143Y-83327382D01*
X131341667Y-83446430D01*
X131460714Y-83505953D01*
X132115476Y-83505953D01*
X131460714Y-83505953D02*
X131341667Y-83565477D01*
X131282143Y-83684525D01*
X131282143Y-83863096D01*
X131341667Y-83982144D01*
X131460714Y-84041668D01*
X132115476Y-84041668D01*
X132115476Y-84636906D02*
X131282143Y-84636906D01*
X130865476Y-84636906D02*
X130925000Y-84577382D01*
X130984524Y-84636906D01*
X130925000Y-84696430D01*
X130865476Y-84636906D01*
X130984524Y-84636906D01*
X132115476Y-85767858D02*
X130865476Y-85767858D01*
X132055952Y-85767858D02*
X132115476Y-85648811D01*
X132115476Y-85410715D01*
X132055952Y-85291668D01*
X131996429Y-85232144D01*
X131877381Y-85172620D01*
X131520238Y-85172620D01*
X131401190Y-85232144D01*
X131341667Y-85291668D01*
X131282143Y-85410715D01*
X131282143Y-85648811D01*
X131341667Y-85767858D01*
X132115476Y-86898810D02*
X130865476Y-86898810D01*
X132055952Y-86898810D02*
X132115476Y-86779763D01*
X132115476Y-86541667D01*
X132055952Y-86422620D01*
X131996429Y-86363096D01*
X131877381Y-86303572D01*
X131520238Y-86303572D01*
X131401190Y-86363096D01*
X131341667Y-86422620D01*
X131282143Y-86541667D01*
X131282143Y-86779763D01*
X131341667Y-86898810D01*
X132115476Y-87672619D02*
X132055952Y-87553572D01*
X131936905Y-87494048D01*
X130865476Y-87494048D01*
X132055952Y-88625001D02*
X132115476Y-88505953D01*
X132115476Y-88267858D01*
X132055952Y-88148810D01*
X131936905Y-88089286D01*
X131460714Y-88089286D01*
X131341667Y-88148810D01*
X131282143Y-88267858D01*
X131282143Y-88505953D01*
X131341667Y-88625001D01*
X131460714Y-88684524D01*
X131579762Y-88684524D01*
X131698810Y-88089286D01*
X132115476Y-90172620D02*
X130865476Y-90172620D01*
X131341667Y-90172620D02*
X131282143Y-90291668D01*
X131282143Y-90529763D01*
X131341667Y-90648811D01*
X131401190Y-90708334D01*
X131520238Y-90767858D01*
X131877381Y-90767858D01*
X131996429Y-90708334D01*
X132055952Y-90648811D01*
X132115476Y-90529763D01*
X132115476Y-90291668D01*
X132055952Y-90172620D01*
X131282143Y-91839286D02*
X132115476Y-91839286D01*
X131282143Y-91303572D02*
X131936905Y-91303572D01*
X132055952Y-91363096D01*
X132115476Y-91482143D01*
X132115476Y-91660715D01*
X132055952Y-91779763D01*
X131996429Y-91839286D01*
X131282143Y-92255953D02*
X131282143Y-92732143D01*
X130865476Y-92434524D02*
X131936905Y-92434524D01*
X132055952Y-92494048D01*
X132115476Y-92613095D01*
X132115476Y-92732143D01*
X131282143Y-92970239D02*
X131282143Y-93446429D01*
X130865476Y-93148810D02*
X131936905Y-93148810D01*
X132055952Y-93208334D01*
X132115476Y-93327381D01*
X132115476Y-93446429D01*
X132115476Y-94041667D02*
X132055952Y-93922620D01*
X131996429Y-93863096D01*
X131877381Y-93803572D01*
X131520238Y-93803572D01*
X131401190Y-93863096D01*
X131341667Y-93922620D01*
X131282143Y-94041667D01*
X131282143Y-94220239D01*
X131341667Y-94339287D01*
X131401190Y-94398810D01*
X131520238Y-94458334D01*
X131877381Y-94458334D01*
X131996429Y-94398810D01*
X132055952Y-94339287D01*
X132115476Y-94220239D01*
X132115476Y-94041667D01*
X131282143Y-94994048D02*
X132115476Y-94994048D01*
X131401190Y-94994048D02*
X131341667Y-95053572D01*
X131282143Y-95172619D01*
X131282143Y-95351191D01*
X131341667Y-95470239D01*
X131460714Y-95529762D01*
X132115476Y-95529762D01*
X135382143Y-82315476D02*
X135382143Y-82791666D01*
X134965476Y-82494047D02*
X136036905Y-82494047D01*
X136155952Y-82553571D01*
X136215476Y-82672618D01*
X136215476Y-82791666D01*
X136215476Y-83386904D02*
X136155952Y-83267857D01*
X136096429Y-83208333D01*
X135977381Y-83148809D01*
X135620238Y-83148809D01*
X135501190Y-83208333D01*
X135441667Y-83267857D01*
X135382143Y-83386904D01*
X135382143Y-83565476D01*
X135441667Y-83684524D01*
X135501190Y-83744047D01*
X135620238Y-83803571D01*
X135977381Y-83803571D01*
X136096429Y-83744047D01*
X136155952Y-83684524D01*
X136215476Y-83565476D01*
X136215476Y-83386904D01*
X136155952Y-85767857D02*
X136215476Y-85648809D01*
X136215476Y-85410714D01*
X136155952Y-85291666D01*
X136036905Y-85232142D01*
X135560714Y-85232142D01*
X135441667Y-85291666D01*
X135382143Y-85410714D01*
X135382143Y-85648809D01*
X135441667Y-85767857D01*
X135560714Y-85827380D01*
X135679762Y-85827380D01*
X135798810Y-85232142D01*
X135382143Y-86363095D02*
X136215476Y-86363095D01*
X135501190Y-86363095D02*
X135441667Y-86422619D01*
X135382143Y-86541666D01*
X135382143Y-86720238D01*
X135441667Y-86839286D01*
X135560714Y-86898809D01*
X136215476Y-86898809D01*
X135382143Y-87315476D02*
X135382143Y-87791666D01*
X134965476Y-87494047D02*
X136036905Y-87494047D01*
X136155952Y-87553571D01*
X136215476Y-87672618D01*
X136215476Y-87791666D01*
X136155952Y-88684524D02*
X136215476Y-88565476D01*
X136215476Y-88327381D01*
X136155952Y-88208333D01*
X136036905Y-88148809D01*
X135560714Y-88148809D01*
X135441667Y-88208333D01*
X135382143Y-88327381D01*
X135382143Y-88565476D01*
X135441667Y-88684524D01*
X135560714Y-88744047D01*
X135679762Y-88744047D01*
X135798810Y-88148809D01*
X136215476Y-89279762D02*
X135382143Y-89279762D01*
X135620238Y-89279762D02*
X135501190Y-89339286D01*
X135441667Y-89398810D01*
X135382143Y-89517857D01*
X135382143Y-89636905D01*
X136215476Y-91005953D02*
X135382143Y-91005953D01*
X135501190Y-91005953D02*
X135441667Y-91065477D01*
X135382143Y-91184524D01*
X135382143Y-91363096D01*
X135441667Y-91482144D01*
X135560714Y-91541667D01*
X136215476Y-91541667D01*
X135560714Y-91541667D02*
X135441667Y-91601191D01*
X135382143Y-91720239D01*
X135382143Y-91898810D01*
X135441667Y-92017858D01*
X135560714Y-92077382D01*
X136215476Y-92077382D01*
X136155952Y-93148811D02*
X136215476Y-93029763D01*
X136215476Y-92791668D01*
X136155952Y-92672620D01*
X136036905Y-92613096D01*
X135560714Y-92613096D01*
X135441667Y-92672620D01*
X135382143Y-92791668D01*
X135382143Y-93029763D01*
X135441667Y-93148811D01*
X135560714Y-93208334D01*
X135679762Y-93208334D01*
X135798810Y-92613096D01*
X135382143Y-93744049D02*
X136215476Y-93744049D01*
X135501190Y-93744049D02*
X135441667Y-93803573D01*
X135382143Y-93922620D01*
X135382143Y-94101192D01*
X135441667Y-94220240D01*
X135560714Y-94279763D01*
X136215476Y-94279763D01*
X135382143Y-95410715D02*
X136215476Y-95410715D01*
X135382143Y-94875001D02*
X136036905Y-94875001D01*
X136155952Y-94934525D01*
X136215476Y-95053572D01*
X136215476Y-95232144D01*
X136155952Y-95351192D01*
X136096429Y-95410715D01*
X136096429Y-96005953D02*
X136155952Y-96065477D01*
X136215476Y-96005953D01*
X136155952Y-95946429D01*
X136096429Y-96005953D01*
X136215476Y-96005953D01*
X114015476Y-83476191D02*
X112765476Y-83476191D01*
X112765476Y-83773810D01*
X112825000Y-83952382D01*
X112944048Y-84071429D01*
X113063095Y-84130953D01*
X113301190Y-84190477D01*
X113479762Y-84190477D01*
X113717857Y-84130953D01*
X113836905Y-84071429D01*
X113955952Y-83952382D01*
X114015476Y-83773810D01*
X114015476Y-83476191D01*
X113955952Y-85202382D02*
X114015476Y-85083334D01*
X114015476Y-84845239D01*
X113955952Y-84726191D01*
X113836905Y-84666667D01*
X113360714Y-84666667D01*
X113241667Y-84726191D01*
X113182143Y-84845239D01*
X113182143Y-85083334D01*
X113241667Y-85202382D01*
X113360714Y-85261905D01*
X113479762Y-85261905D01*
X113598810Y-84666667D01*
X113955952Y-85738096D02*
X114015476Y-85857144D01*
X114015476Y-86095239D01*
X113955952Y-86214287D01*
X113836905Y-86273811D01*
X113777381Y-86273811D01*
X113658333Y-86214287D01*
X113598810Y-86095239D01*
X113598810Y-85916668D01*
X113539286Y-85797620D01*
X113420238Y-85738096D01*
X113360714Y-85738096D01*
X113241667Y-85797620D01*
X113182143Y-85916668D01*
X113182143Y-86095239D01*
X113241667Y-86214287D01*
X114015476Y-86809525D02*
X113182143Y-86809525D01*
X112765476Y-86809525D02*
X112825000Y-86750001D01*
X112884524Y-86809525D01*
X112825000Y-86869049D01*
X112765476Y-86809525D01*
X112884524Y-86809525D01*
X113182143Y-87940477D02*
X114194048Y-87940477D01*
X114313095Y-87880954D01*
X114372619Y-87821430D01*
X114432143Y-87702382D01*
X114432143Y-87523811D01*
X114372619Y-87404763D01*
X113955952Y-87940477D02*
X114015476Y-87821430D01*
X114015476Y-87583334D01*
X113955952Y-87464287D01*
X113896429Y-87404763D01*
X113777381Y-87345239D01*
X113420238Y-87345239D01*
X113301190Y-87404763D01*
X113241667Y-87464287D01*
X113182143Y-87583334D01*
X113182143Y-87821430D01*
X113241667Y-87940477D01*
X113182143Y-88535715D02*
X114015476Y-88535715D01*
X113301190Y-88535715D02*
X113241667Y-88595239D01*
X113182143Y-88714286D01*
X113182143Y-88892858D01*
X113241667Y-89011906D01*
X113360714Y-89071429D01*
X114015476Y-89071429D01*
X113955952Y-90142858D02*
X114015476Y-90023810D01*
X114015476Y-89785715D01*
X113955952Y-89666667D01*
X113836905Y-89607143D01*
X113360714Y-89607143D01*
X113241667Y-89666667D01*
X113182143Y-89785715D01*
X113182143Y-90023810D01*
X113241667Y-90142858D01*
X113360714Y-90202381D01*
X113479762Y-90202381D01*
X113598810Y-89607143D01*
X114015476Y-91273810D02*
X112765476Y-91273810D01*
X113955952Y-91273810D02*
X114015476Y-91154763D01*
X114015476Y-90916667D01*
X113955952Y-90797620D01*
X113896429Y-90738096D01*
X113777381Y-90678572D01*
X113420238Y-90678572D01*
X113301190Y-90738096D01*
X113241667Y-90797620D01*
X113182143Y-90916667D01*
X113182143Y-91154763D01*
X113241667Y-91273810D01*
X113360714Y-93238096D02*
X113420238Y-93416667D01*
X113479762Y-93476191D01*
X113598810Y-93535715D01*
X113777381Y-93535715D01*
X113896429Y-93476191D01*
X113955952Y-93416667D01*
X114015476Y-93297620D01*
X114015476Y-92821429D01*
X112765476Y-92821429D01*
X112765476Y-93238096D01*
X112825000Y-93357143D01*
X112884524Y-93416667D01*
X113003571Y-93476191D01*
X113122619Y-93476191D01*
X113241667Y-93416667D01*
X113301190Y-93357143D01*
X113360714Y-93238096D01*
X113360714Y-92821429D01*
X113182143Y-93952381D02*
X114015476Y-94250000D01*
X113182143Y-94547620D02*
X114015476Y-94250000D01*
X114313095Y-94130953D01*
X114372619Y-94071429D01*
X114432143Y-93952381D01*
X113896429Y-95023810D02*
X113955952Y-95083334D01*
X114015476Y-95023810D01*
X113955952Y-94964286D01*
X113896429Y-95023810D01*
X114015476Y-95023810D01*
X113241667Y-95023810D02*
X113301190Y-95083334D01*
X113360714Y-95023810D01*
X113301190Y-94964286D01*
X113241667Y-95023810D01*
X113360714Y-95023810D01*
X115946429Y-82672619D02*
X116005952Y-82613095D01*
X116065476Y-82434524D01*
X116065476Y-82315476D01*
X116005952Y-82136904D01*
X115886905Y-82017857D01*
X115767857Y-81958333D01*
X115529762Y-81898809D01*
X115351190Y-81898809D01*
X115113095Y-81958333D01*
X114994048Y-82017857D01*
X114875000Y-82136904D01*
X114815476Y-82315476D01*
X114815476Y-82434524D01*
X114875000Y-82613095D01*
X114934524Y-82672619D01*
X116065476Y-83744047D02*
X115410714Y-83744047D01*
X115291667Y-83684524D01*
X115232143Y-83565476D01*
X115232143Y-83327381D01*
X115291667Y-83208333D01*
X116005952Y-83744047D02*
X116065476Y-83625000D01*
X116065476Y-83327381D01*
X116005952Y-83208333D01*
X115886905Y-83148809D01*
X115767857Y-83148809D01*
X115648810Y-83208333D01*
X115589286Y-83327381D01*
X115589286Y-83625000D01*
X115529762Y-83744047D01*
X116065476Y-84339285D02*
X115232143Y-84339285D01*
X115351190Y-84339285D02*
X115291667Y-84398809D01*
X115232143Y-84517856D01*
X115232143Y-84696428D01*
X115291667Y-84815476D01*
X115410714Y-84874999D01*
X116065476Y-84874999D01*
X115410714Y-84874999D02*
X115291667Y-84934523D01*
X115232143Y-85053571D01*
X115232143Y-85232142D01*
X115291667Y-85351190D01*
X115410714Y-85410714D01*
X116065476Y-85410714D01*
X116005952Y-86482143D02*
X116065476Y-86363095D01*
X116065476Y-86125000D01*
X116005952Y-86005952D01*
X115886905Y-85946428D01*
X115410714Y-85946428D01*
X115291667Y-86005952D01*
X115232143Y-86125000D01*
X115232143Y-86363095D01*
X115291667Y-86482143D01*
X115410714Y-86541666D01*
X115529762Y-86541666D01*
X115648810Y-85946428D01*
X116065476Y-87077381D02*
X115232143Y-87077381D01*
X115470238Y-87077381D02*
X115351190Y-87136905D01*
X115291667Y-87196429D01*
X115232143Y-87315476D01*
X115232143Y-87434524D01*
X116065476Y-88029762D02*
X116005952Y-87910715D01*
X115946429Y-87851191D01*
X115827381Y-87791667D01*
X115470238Y-87791667D01*
X115351190Y-87851191D01*
X115291667Y-87910715D01*
X115232143Y-88029762D01*
X115232143Y-88208334D01*
X115291667Y-88327382D01*
X115351190Y-88386905D01*
X115470238Y-88446429D01*
X115827381Y-88446429D01*
X115946429Y-88386905D01*
X116005952Y-88327382D01*
X116065476Y-88208334D01*
X116065476Y-88029762D01*
X115232143Y-88982143D02*
X116065476Y-88982143D01*
X115351190Y-88982143D02*
X115291667Y-89041667D01*
X115232143Y-89160714D01*
X115232143Y-89339286D01*
X115291667Y-89458334D01*
X115410714Y-89517857D01*
X116065476Y-89517857D01*
X116065476Y-91065476D02*
X114815476Y-91065476D01*
X114815476Y-91363095D01*
X114875000Y-91541667D01*
X114994048Y-91660714D01*
X115113095Y-91720238D01*
X115351190Y-91779762D01*
X115529762Y-91779762D01*
X115767857Y-91720238D01*
X115886905Y-91660714D01*
X116005952Y-91541667D01*
X116065476Y-91363095D01*
X116065476Y-91065476D01*
X116005952Y-92791667D02*
X116065476Y-92672619D01*
X116065476Y-92434524D01*
X116005952Y-92315476D01*
X115886905Y-92255952D01*
X115410714Y-92255952D01*
X115291667Y-92315476D01*
X115232143Y-92434524D01*
X115232143Y-92672619D01*
X115291667Y-92791667D01*
X115410714Y-92851190D01*
X115529762Y-92851190D01*
X115648810Y-92255952D01*
X115232143Y-93267857D02*
X116065476Y-93565476D01*
X115232143Y-93863096D01*
X116065476Y-94339286D02*
X115232143Y-94339286D01*
X114815476Y-94339286D02*
X114875000Y-94279762D01*
X114934524Y-94339286D01*
X114875000Y-94398810D01*
X114815476Y-94339286D01*
X114934524Y-94339286D01*
X115232143Y-94934524D02*
X116065476Y-94934524D01*
X115351190Y-94934524D02*
X115291667Y-94994048D01*
X115232143Y-95113095D01*
X115232143Y-95291667D01*
X115291667Y-95410715D01*
X115410714Y-95470238D01*
X116065476Y-95470238D01*
X116005952Y-96541667D02*
X116065476Y-96422619D01*
X116065476Y-96184524D01*
X116005952Y-96065476D01*
X115886905Y-96005952D01*
X115410714Y-96005952D01*
X115291667Y-96065476D01*
X115232143Y-96184524D01*
X115232143Y-96422619D01*
X115291667Y-96541667D01*
X115410714Y-96601190D01*
X115529762Y-96601190D01*
X115648810Y-96005952D01*
X118055952Y-83654763D02*
X118115476Y-83833335D01*
X118115476Y-84130954D01*
X118055952Y-84250001D01*
X117996429Y-84309525D01*
X117877381Y-84369049D01*
X117758333Y-84369049D01*
X117639286Y-84309525D01*
X117579762Y-84250001D01*
X117520238Y-84130954D01*
X117460714Y-83892858D01*
X117401190Y-83773811D01*
X117341667Y-83714287D01*
X117222619Y-83654763D01*
X117103571Y-83654763D01*
X116984524Y-83714287D01*
X116925000Y-83773811D01*
X116865476Y-83892858D01*
X116865476Y-84190478D01*
X116925000Y-84369049D01*
X117282143Y-84904763D02*
X118532143Y-84904763D01*
X117341667Y-84904763D02*
X117282143Y-85023811D01*
X117282143Y-85261906D01*
X117341667Y-85380954D01*
X117401190Y-85440477D01*
X117520238Y-85500001D01*
X117877381Y-85500001D01*
X117996429Y-85440477D01*
X118055952Y-85380954D01*
X118115476Y-85261906D01*
X118115476Y-85023811D01*
X118055952Y-84904763D01*
X118115476Y-86035715D02*
X117282143Y-86035715D01*
X117520238Y-86035715D02*
X117401190Y-86095239D01*
X117341667Y-86154763D01*
X117282143Y-86273810D01*
X117282143Y-86392858D01*
X118115476Y-86809525D02*
X117282143Y-86809525D01*
X116865476Y-86809525D02*
X116925000Y-86750001D01*
X116984524Y-86809525D01*
X116925000Y-86869049D01*
X116865476Y-86809525D01*
X116984524Y-86809525D01*
X117282143Y-87404763D02*
X118115476Y-87404763D01*
X117401190Y-87404763D02*
X117341667Y-87464287D01*
X117282143Y-87583334D01*
X117282143Y-87761906D01*
X117341667Y-87880954D01*
X117460714Y-87940477D01*
X118115476Y-87940477D01*
X117282143Y-89071429D02*
X118294048Y-89071429D01*
X118413095Y-89011906D01*
X118472619Y-88952382D01*
X118532143Y-88833334D01*
X118532143Y-88654763D01*
X118472619Y-88535715D01*
X118055952Y-89071429D02*
X118115476Y-88952382D01*
X118115476Y-88714286D01*
X118055952Y-88595239D01*
X117996429Y-88535715D01*
X117877381Y-88476191D01*
X117520238Y-88476191D01*
X117401190Y-88535715D01*
X117341667Y-88595239D01*
X117282143Y-88714286D01*
X117282143Y-88952382D01*
X117341667Y-89071429D01*
X116984524Y-90559524D02*
X116925000Y-90619048D01*
X116865476Y-90738096D01*
X116865476Y-91035715D01*
X116925000Y-91154762D01*
X116984524Y-91214286D01*
X117103571Y-91273810D01*
X117222619Y-91273810D01*
X117401190Y-91214286D01*
X118115476Y-90500000D01*
X118115476Y-91273810D01*
X116865476Y-92047619D02*
X116865476Y-92166667D01*
X116925000Y-92285715D01*
X116984524Y-92345238D01*
X117103571Y-92404762D01*
X117341667Y-92464286D01*
X117639286Y-92464286D01*
X117877381Y-92404762D01*
X117996429Y-92345238D01*
X118055952Y-92285715D01*
X118115476Y-92166667D01*
X118115476Y-92047619D01*
X118055952Y-91928572D01*
X117996429Y-91869048D01*
X117877381Y-91809524D01*
X117639286Y-91750000D01*
X117341667Y-91750000D01*
X117103571Y-91809524D01*
X116984524Y-91869048D01*
X116925000Y-91928572D01*
X116865476Y-92047619D01*
X118115476Y-93654762D02*
X118115476Y-92940476D01*
X118115476Y-93297619D02*
X116865476Y-93297619D01*
X117044048Y-93178571D01*
X117163095Y-93059524D01*
X117222619Y-92940476D01*
X116865476Y-94726190D02*
X116865476Y-94488095D01*
X116925000Y-94369047D01*
X116984524Y-94309524D01*
X117163095Y-94190476D01*
X117401190Y-94130952D01*
X117877381Y-94130952D01*
X117996429Y-94190476D01*
X118055952Y-94250000D01*
X118115476Y-94369047D01*
X118115476Y-94607143D01*
X118055952Y-94726190D01*
X117996429Y-94785714D01*
X117877381Y-94845238D01*
X117579762Y-94845238D01*
X117460714Y-94785714D01*
X117401190Y-94726190D01*
X117341667Y-94607143D01*
X117341667Y-94369047D01*
X117401190Y-94250000D01*
X117460714Y-94190476D01*
X117579762Y-94130952D01*
M02*
