G04 #@! TF.FileFunction,Copper,L1,Top,Signal*
%FSLAX46Y46*%
G04 Gerber Fmt 4.6, Leading zero omitted, Abs format (unit mm)*
G04 Created by KiCad (PCBNEW 4.0.0-rc1-stable) date 3/16/2016 3:52:32 PM*
%MOMM*%
G01*
G04 APERTURE LIST*
%ADD10C,0.100000*%
%ADD11O,1.600000X1.600000*%
%ADD12O,1.727200X2.032000*%
%ADD13R,1.300000X1.300000*%
%ADD14C,1.300000*%
%ADD15C,1.699260*%
%ADD16R,1.699260X1.699260*%
%ADD17C,1.998980*%
%ADD18C,1.397000*%
%ADD19C,2.700000*%
%ADD20O,1.650000X1.100000*%
%ADD21C,0.250000*%
G04 APERTURE END LIST*
D10*
D11*
X125550000Y-85440000D03*
X125550000Y-87980000D03*
X125550000Y-90520000D03*
X125550000Y-93060000D03*
X133170000Y-93060000D03*
X133170000Y-90520000D03*
X133170000Y-87980000D03*
X133170000Y-85440000D03*
D12*
X140710000Y-84750000D03*
X143250000Y-84750000D03*
X145790000Y-84750000D03*
X148330000Y-84750000D03*
X150870000Y-84750000D03*
X153410000Y-84750000D03*
X155950000Y-84750000D03*
X138170000Y-84750000D03*
D13*
X104000000Y-94000000D03*
D14*
X106000000Y-94000000D03*
D15*
X110620000Y-95250000D03*
D16*
X120780000Y-95250000D03*
D15*
X110500000Y-83250000D03*
D16*
X120660000Y-83250000D03*
D17*
X120660000Y-92250000D03*
X110500000Y-92250000D03*
X120660000Y-89250000D03*
X110500000Y-89250000D03*
X120660000Y-86250000D03*
X110500000Y-86250000D03*
D18*
X152000000Y-88000000D03*
X156500000Y-88000000D03*
X152000000Y-94500000D03*
X156500000Y-94500000D03*
X145000000Y-88000000D03*
X149500000Y-88000000D03*
X145000000Y-94500000D03*
X149500000Y-94500000D03*
X138000000Y-88000000D03*
X142500000Y-88000000D03*
X138000000Y-94500000D03*
X142500000Y-94500000D03*
D19*
X101530000Y-90540000D03*
X101530000Y-83240000D03*
D20*
X106855000Y-86890000D03*
X106855000Y-85290000D03*
X106855000Y-88490000D03*
X105105000Y-87690000D03*
X105105000Y-86090000D03*
D21*
X145113590Y-84750000D02*
X145790000Y-84750000D01*
X145790000Y-84750000D02*
X145790000Y-84902400D01*
X120660000Y-92250000D02*
X122390000Y-90520000D01*
X122390000Y-90520000D02*
X125550000Y-90520000D01*
X120660000Y-92250000D02*
X120660000Y-95130000D01*
X120660000Y-95130000D02*
X120780000Y-95250000D01*
X148330000Y-84750000D02*
X148330000Y-84597600D01*
X146691380Y-82958980D02*
X126366018Y-82958980D01*
X148330000Y-84597600D02*
X146691380Y-82958980D01*
X126366018Y-82958980D02*
X124424999Y-84899999D01*
X124750001Y-87180001D02*
X125550000Y-87980000D01*
X124424999Y-84899999D02*
X124424999Y-86854999D01*
X124424999Y-86854999D02*
X124750001Y-87180001D01*
X120660000Y-89250000D02*
X124280000Y-89250000D01*
X124280000Y-89250000D02*
X125550000Y-87980000D01*
X120660000Y-86250000D02*
X120660000Y-84836508D01*
X120660000Y-84836508D02*
X120660000Y-83250000D01*
X120660000Y-89250000D02*
X120660000Y-87836508D01*
X120660000Y-87836508D02*
X120660000Y-86250000D01*
X143250000Y-84750000D02*
X143250000Y-83484000D01*
X143250000Y-83484000D02*
X143174990Y-83408990D01*
X143174990Y-83408990D02*
X127581010Y-83408990D01*
X127581010Y-83408990D02*
X126349999Y-84640001D01*
X126349999Y-84640001D02*
X125550000Y-85440000D01*
X156500000Y-88000000D02*
X156500000Y-85300000D01*
X156500000Y-85300000D02*
X155950000Y-84750000D01*
X133170000Y-93060000D02*
X151440000Y-93060000D01*
X151440000Y-93060000D02*
X156500000Y-88000000D01*
X149500000Y-88000000D02*
X152750000Y-84750000D01*
X152750000Y-84750000D02*
X153410000Y-84750000D01*
X133170000Y-90520000D02*
X146980000Y-90520000D01*
X146980000Y-90520000D02*
X149500000Y-88000000D01*
X142500000Y-88000000D02*
X144408990Y-86091010D01*
X144408990Y-86091010D02*
X149681390Y-86091010D01*
X149681390Y-86091010D02*
X150870000Y-84902400D01*
X150870000Y-84902400D02*
X150870000Y-84750000D01*
X133170000Y-87980000D02*
X134213501Y-89023501D01*
X134213501Y-89023501D02*
X141476499Y-89023501D01*
X141476499Y-89023501D02*
X141801501Y-88698499D01*
X141801501Y-88698499D02*
X142500000Y-88000000D01*
X150870000Y-84750000D02*
X150163348Y-84750000D01*
X110500000Y-92250000D02*
X109175509Y-90925509D01*
X109175509Y-90925509D02*
X109175509Y-89298058D01*
X109175509Y-89298058D02*
X106767451Y-86890000D01*
X106767451Y-86890000D02*
X106580000Y-86890000D01*
X106550000Y-86600000D02*
X106737451Y-86600000D01*
X105380000Y-86090000D02*
X105380000Y-85252549D01*
X105380000Y-85252549D02*
X106217559Y-84414990D01*
X109175509Y-86098058D02*
X109175509Y-87925509D01*
X106217559Y-84414990D02*
X107492441Y-84414990D01*
X107492441Y-84414990D02*
X109175509Y-86098058D01*
X109175509Y-87925509D02*
X109500511Y-88250511D01*
X109500511Y-88250511D02*
X110500000Y-89250000D01*
G36*
X109719063Y-81955665D02*
X109638557Y-82206124D01*
X110500000Y-83067566D01*
X111361443Y-82206124D01*
X111280937Y-81955665D01*
X111265249Y-81950000D01*
X157300000Y-81950000D01*
X157300000Y-87281913D01*
X157108883Y-87090462D01*
X157000000Y-87045250D01*
X157000000Y-85544798D01*
X157094317Y-85403643D01*
X157188600Y-84929651D01*
X157188600Y-84570349D01*
X157094317Y-84096357D01*
X156825822Y-83694527D01*
X156423992Y-83426032D01*
X155950000Y-83331749D01*
X155476008Y-83426032D01*
X155074178Y-83694527D01*
X154805683Y-84096357D01*
X154711400Y-84570349D01*
X154711400Y-84929651D01*
X154805683Y-85403643D01*
X155074178Y-85805473D01*
X155476008Y-86073968D01*
X155950000Y-86168251D01*
X156000000Y-86158305D01*
X156000000Y-87045067D01*
X155892706Y-87089400D01*
X155590462Y-87391117D01*
X155426687Y-87785531D01*
X155426314Y-88212596D01*
X155471336Y-88321557D01*
X151232894Y-92560000D01*
X134244937Y-92560000D01*
X134023870Y-92229150D01*
X133642673Y-91974442D01*
X133193020Y-91885000D01*
X133146980Y-91885000D01*
X132697327Y-91974442D01*
X132316130Y-92229150D01*
X132061422Y-92610347D01*
X131971980Y-93060000D01*
X132061422Y-93509653D01*
X132316130Y-93890850D01*
X132697327Y-94145558D01*
X133146980Y-94235000D01*
X133193020Y-94235000D01*
X133642673Y-94145558D01*
X134023870Y-93890850D01*
X134244937Y-93560000D01*
X137023547Y-93560000D01*
X136950555Y-93632992D01*
X137065642Y-93748079D01*
X136830836Y-93810005D01*
X136655784Y-94309947D01*
X136685376Y-94838824D01*
X136830836Y-95189995D01*
X137065645Y-95251922D01*
X137817566Y-94500000D01*
X137803424Y-94485858D01*
X137985858Y-94303424D01*
X138000000Y-94317566D01*
X138014142Y-94303424D01*
X138196576Y-94485858D01*
X138182434Y-94500000D01*
X138934355Y-95251922D01*
X139169164Y-95189995D01*
X139344216Y-94690053D01*
X139314624Y-94161176D01*
X139169164Y-93810005D01*
X138934358Y-93748079D01*
X139049445Y-93632992D01*
X138976453Y-93560000D01*
X141963859Y-93560000D01*
X141892706Y-93589400D01*
X141590462Y-93891117D01*
X141426687Y-94285531D01*
X141426314Y-94712596D01*
X141589400Y-95107294D01*
X141891117Y-95409538D01*
X142285531Y-95573313D01*
X142712596Y-95573686D01*
X143049802Y-95434355D01*
X144248078Y-95434355D01*
X144310005Y-95669164D01*
X144809947Y-95844216D01*
X145338824Y-95814624D01*
X145689995Y-95669164D01*
X145751922Y-95434355D01*
X145000000Y-94682434D01*
X144248078Y-95434355D01*
X143049802Y-95434355D01*
X143107294Y-95410600D01*
X143409538Y-95108883D01*
X143573313Y-94714469D01*
X143573686Y-94287404D01*
X143410600Y-93892706D01*
X143108883Y-93590462D01*
X143035522Y-93560000D01*
X144023547Y-93560000D01*
X143950555Y-93632992D01*
X144065642Y-93748079D01*
X143830836Y-93810005D01*
X143655784Y-94309947D01*
X143685376Y-94838824D01*
X143830836Y-95189995D01*
X144065645Y-95251922D01*
X144817566Y-94500000D01*
X144803424Y-94485858D01*
X144985858Y-94303424D01*
X145000000Y-94317566D01*
X145014142Y-94303424D01*
X145196576Y-94485858D01*
X145182434Y-94500000D01*
X145934355Y-95251922D01*
X146169164Y-95189995D01*
X146344216Y-94690053D01*
X146314624Y-94161176D01*
X146169164Y-93810005D01*
X145934358Y-93748079D01*
X146049445Y-93632992D01*
X145976453Y-93560000D01*
X148963859Y-93560000D01*
X148892706Y-93589400D01*
X148590462Y-93891117D01*
X148426687Y-94285531D01*
X148426314Y-94712596D01*
X148589400Y-95107294D01*
X148891117Y-95409538D01*
X149285531Y-95573313D01*
X149712596Y-95573686D01*
X150049802Y-95434355D01*
X151248078Y-95434355D01*
X151310005Y-95669164D01*
X151809947Y-95844216D01*
X152338824Y-95814624D01*
X152689995Y-95669164D01*
X152751922Y-95434355D01*
X152000000Y-94682434D01*
X151248078Y-95434355D01*
X150049802Y-95434355D01*
X150107294Y-95410600D01*
X150409538Y-95108883D01*
X150573313Y-94714469D01*
X150573686Y-94287404D01*
X150410600Y-93892706D01*
X150108883Y-93590462D01*
X150035522Y-93560000D01*
X151023547Y-93560000D01*
X150950555Y-93632992D01*
X151065642Y-93748079D01*
X150830836Y-93810005D01*
X150655784Y-94309947D01*
X150685376Y-94838824D01*
X150830836Y-95189995D01*
X151065645Y-95251922D01*
X151817566Y-94500000D01*
X152182434Y-94500000D01*
X152934355Y-95251922D01*
X153169164Y-95189995D01*
X153344216Y-94690053D01*
X153314624Y-94161176D01*
X153169164Y-93810005D01*
X152934355Y-93748078D01*
X152182434Y-94500000D01*
X151817566Y-94500000D01*
X151803424Y-94485858D01*
X151985858Y-94303424D01*
X152000000Y-94317566D01*
X152751922Y-93565645D01*
X152689995Y-93330836D01*
X152190053Y-93155784D01*
X152043100Y-93164006D01*
X156178314Y-89028793D01*
X156285531Y-89073313D01*
X156712596Y-89073686D01*
X157107294Y-88910600D01*
X157300000Y-88718230D01*
X157300000Y-93781913D01*
X157108883Y-93590462D01*
X156714469Y-93426687D01*
X156287404Y-93426314D01*
X155892706Y-93589400D01*
X155590462Y-93891117D01*
X155426687Y-94285531D01*
X155426314Y-94712596D01*
X155589400Y-95107294D01*
X155891117Y-95409538D01*
X156285531Y-95573313D01*
X156712596Y-95573686D01*
X157107294Y-95410600D01*
X157300000Y-95218230D01*
X157300000Y-96800000D01*
X100200000Y-96800000D01*
X100200000Y-96293876D01*
X109758557Y-96293876D01*
X109839063Y-96544335D01*
X110393829Y-96744661D01*
X110983027Y-96717439D01*
X111400937Y-96544335D01*
X111481443Y-96293876D01*
X110620000Y-95432434D01*
X109758557Y-96293876D01*
X100200000Y-96293876D01*
X100200000Y-93350000D01*
X102967654Y-93350000D01*
X102967654Y-94650000D01*
X102993802Y-94788966D01*
X103075931Y-94916599D01*
X103201246Y-95002223D01*
X103350000Y-95032346D01*
X104650000Y-95032346D01*
X104788966Y-95006198D01*
X104916599Y-94924069D01*
X104933608Y-94899175D01*
X105283258Y-94899175D01*
X105339209Y-95128970D01*
X105821547Y-95295905D01*
X106331052Y-95265551D01*
X106660791Y-95128970D01*
X106686390Y-95023829D01*
X109125339Y-95023829D01*
X109152561Y-95613027D01*
X109325665Y-96030937D01*
X109576124Y-96111443D01*
X110437566Y-95250000D01*
X110802434Y-95250000D01*
X111663876Y-96111443D01*
X111914335Y-96030937D01*
X112114661Y-95476171D01*
X112087439Y-94886973D01*
X111914335Y-94469063D01*
X111663876Y-94388557D01*
X110802434Y-95250000D01*
X110437566Y-95250000D01*
X109576124Y-94388557D01*
X109325665Y-94469063D01*
X109125339Y-95023829D01*
X106686390Y-95023829D01*
X106716742Y-94899175D01*
X106000000Y-94182434D01*
X105283258Y-94899175D01*
X104933608Y-94899175D01*
X105002223Y-94798754D01*
X105022683Y-94697716D01*
X105100825Y-94716742D01*
X105817566Y-94000000D01*
X106182434Y-94000000D01*
X106899175Y-94716742D01*
X107128970Y-94660791D01*
X107286328Y-94206124D01*
X109758557Y-94206124D01*
X110620000Y-95067566D01*
X111481443Y-94206124D01*
X111400937Y-93955665D01*
X110846171Y-93755339D01*
X110256973Y-93782561D01*
X109839063Y-93955665D01*
X109758557Y-94206124D01*
X107286328Y-94206124D01*
X107295905Y-94178453D01*
X107265551Y-93668948D01*
X107128970Y-93339209D01*
X106899175Y-93283258D01*
X106182434Y-94000000D01*
X105817566Y-94000000D01*
X105100825Y-93283258D01*
X105023338Y-93302125D01*
X105006198Y-93211034D01*
X104935281Y-93100825D01*
X105283258Y-93100825D01*
X106000000Y-93817566D01*
X106716742Y-93100825D01*
X106660791Y-92871030D01*
X106178453Y-92704095D01*
X105668948Y-92734449D01*
X105339209Y-92871030D01*
X105283258Y-93100825D01*
X104935281Y-93100825D01*
X104924069Y-93083401D01*
X104798754Y-92997777D01*
X104650000Y-92967654D01*
X103350000Y-92967654D01*
X103211034Y-92993802D01*
X103083401Y-93075931D01*
X102997777Y-93201246D01*
X102967654Y-93350000D01*
X100200000Y-93350000D01*
X100200000Y-92052437D01*
X100306615Y-91945822D01*
X100448371Y-92248202D01*
X101184406Y-92532094D01*
X101973053Y-92512708D01*
X102611629Y-92248202D01*
X102753386Y-91945819D01*
X101530000Y-90722434D01*
X101515858Y-90736576D01*
X101333424Y-90554142D01*
X101347566Y-90540000D01*
X101712434Y-90540000D01*
X102935819Y-91763386D01*
X103238202Y-91621629D01*
X103522094Y-90885594D01*
X103502708Y-90096947D01*
X103238202Y-89458371D01*
X102935819Y-89316614D01*
X101712434Y-90540000D01*
X101347566Y-90540000D01*
X101333424Y-90525858D01*
X101515858Y-90343424D01*
X101530000Y-90357566D01*
X102753386Y-89134181D01*
X102611629Y-88831798D01*
X101875594Y-88547906D01*
X101086947Y-88567292D01*
X100448371Y-88831798D01*
X100306615Y-89134178D01*
X100200000Y-89027563D01*
X100200000Y-86090000D01*
X103881491Y-86090000D01*
X103951902Y-86443982D01*
X104152417Y-86744074D01*
X104370811Y-86890000D01*
X104152417Y-87035926D01*
X103951902Y-87336018D01*
X103881491Y-87690000D01*
X103951902Y-88043982D01*
X104152417Y-88344074D01*
X104452509Y-88544589D01*
X104806491Y-88615000D01*
X105397000Y-88615000D01*
X105397000Y-88619002D01*
X105563401Y-88619002D01*
X105438712Y-88801370D01*
X105652276Y-89235290D01*
X106008105Y-89533583D01*
X106451000Y-89673000D01*
X106726000Y-89673000D01*
X106726000Y-88619000D01*
X106706000Y-88619000D01*
X106706000Y-88361000D01*
X106726000Y-88361000D01*
X106726000Y-88341000D01*
X106984000Y-88341000D01*
X106984000Y-88361000D01*
X107004000Y-88361000D01*
X107004000Y-88619000D01*
X106984000Y-88619000D01*
X106984000Y-89673000D01*
X107259000Y-89673000D01*
X107701895Y-89533583D01*
X108057724Y-89235290D01*
X108172478Y-89002133D01*
X108675509Y-89505165D01*
X108675509Y-90925509D01*
X108707322Y-91085443D01*
X108713569Y-91116851D01*
X108821956Y-91279062D01*
X109240922Y-91698028D01*
X109125749Y-91975398D01*
X109125272Y-92522204D01*
X109334085Y-93027569D01*
X109720397Y-93414557D01*
X110225398Y-93624251D01*
X110772204Y-93624728D01*
X111277569Y-93415915D01*
X111664557Y-93029603D01*
X111874251Y-92524602D01*
X111874253Y-92522204D01*
X119285272Y-92522204D01*
X119494085Y-93027569D01*
X119880397Y-93414557D01*
X120160000Y-93530658D01*
X120160000Y-94018024D01*
X119930370Y-94018024D01*
X119791404Y-94044172D01*
X119663771Y-94126301D01*
X119578147Y-94251616D01*
X119548024Y-94400370D01*
X119548024Y-96099630D01*
X119574172Y-96238596D01*
X119656301Y-96366229D01*
X119781616Y-96451853D01*
X119930370Y-96481976D01*
X121629630Y-96481976D01*
X121768596Y-96455828D01*
X121896229Y-96373699D01*
X121981853Y-96248384D01*
X122011976Y-96099630D01*
X122011976Y-95434355D01*
X137248078Y-95434355D01*
X137310005Y-95669164D01*
X137809947Y-95844216D01*
X138338824Y-95814624D01*
X138689995Y-95669164D01*
X138751922Y-95434355D01*
X138000000Y-94682434D01*
X137248078Y-95434355D01*
X122011976Y-95434355D01*
X122011976Y-94400370D01*
X121985828Y-94261404D01*
X121903699Y-94133771D01*
X121778384Y-94048147D01*
X121629630Y-94018024D01*
X121160000Y-94018024D01*
X121160000Y-93530604D01*
X121437569Y-93415915D01*
X121442821Y-93410672D01*
X124160569Y-93410672D01*
X124319552Y-93794519D01*
X124694303Y-94209479D01*
X125199326Y-94449441D01*
X125421000Y-94328942D01*
X125421000Y-93189000D01*
X125679000Y-93189000D01*
X125679000Y-94328942D01*
X125900674Y-94449441D01*
X126405697Y-94209479D01*
X126780448Y-93794519D01*
X126939431Y-93410672D01*
X126818206Y-93189000D01*
X125679000Y-93189000D01*
X125421000Y-93189000D01*
X124281794Y-93189000D01*
X124160569Y-93410672D01*
X121442821Y-93410672D01*
X121824557Y-93029603D01*
X122034251Y-92524602D01*
X122034728Y-91977796D01*
X121919115Y-91697992D01*
X122597107Y-91020000D01*
X124475063Y-91020000D01*
X124696130Y-91350850D01*
X125077327Y-91605558D01*
X125420998Y-91673919D01*
X125420998Y-91791057D01*
X125199326Y-91670559D01*
X124694303Y-91910521D01*
X124319552Y-92325481D01*
X124160569Y-92709328D01*
X124281794Y-92931000D01*
X125421000Y-92931000D01*
X125421000Y-92911000D01*
X125679000Y-92911000D01*
X125679000Y-92931000D01*
X126818206Y-92931000D01*
X126939431Y-92709328D01*
X126780448Y-92325481D01*
X126405697Y-91910521D01*
X125900674Y-91670559D01*
X125679002Y-91791057D01*
X125679002Y-91673919D01*
X126022673Y-91605558D01*
X126403870Y-91350850D01*
X126658578Y-90969653D01*
X126748020Y-90520000D01*
X126658578Y-90070347D01*
X126403870Y-89689150D01*
X126022673Y-89434442D01*
X125573020Y-89345000D01*
X125526980Y-89345000D01*
X125077327Y-89434442D01*
X124696130Y-89689150D01*
X124475063Y-90020000D01*
X122390000Y-90020000D01*
X122198658Y-90058060D01*
X122036446Y-90166447D01*
X121211971Y-90990922D01*
X120934602Y-90875749D01*
X120387796Y-90875272D01*
X119882431Y-91084085D01*
X119495443Y-91470397D01*
X119285749Y-91975398D01*
X119285272Y-92522204D01*
X111874253Y-92522204D01*
X111874728Y-91977796D01*
X111665915Y-91472431D01*
X111279603Y-91085443D01*
X110774602Y-90875749D01*
X110227796Y-90875272D01*
X109947991Y-90990885D01*
X109675509Y-90718403D01*
X109675509Y-90369590D01*
X109720397Y-90414557D01*
X110225398Y-90624251D01*
X110772204Y-90624728D01*
X111277569Y-90415915D01*
X111664557Y-90029603D01*
X111874251Y-89524602D01*
X111874728Y-88977796D01*
X111665915Y-88472431D01*
X111279603Y-88085443D01*
X110774602Y-87875749D01*
X110227796Y-87875272D01*
X109947991Y-87990885D01*
X109854066Y-87896960D01*
X109854064Y-87896957D01*
X109675509Y-87718403D01*
X109675509Y-87369590D01*
X109720397Y-87414557D01*
X110225398Y-87624251D01*
X110772204Y-87624728D01*
X111277569Y-87415915D01*
X111664557Y-87029603D01*
X111874251Y-86524602D01*
X111874253Y-86522204D01*
X119285272Y-86522204D01*
X119494085Y-87027569D01*
X119880397Y-87414557D01*
X120160000Y-87530658D01*
X120160000Y-87969396D01*
X119882431Y-88084085D01*
X119495443Y-88470397D01*
X119285749Y-88975398D01*
X119285272Y-89522204D01*
X119494085Y-90027569D01*
X119880397Y-90414557D01*
X120385398Y-90624251D01*
X120932204Y-90624728D01*
X121437569Y-90415915D01*
X121824557Y-90029603D01*
X121940658Y-89750000D01*
X124280000Y-89750000D01*
X124471342Y-89711940D01*
X124633553Y-89603553D01*
X125155916Y-89081190D01*
X125526980Y-89155000D01*
X125573020Y-89155000D01*
X126022673Y-89065558D01*
X126403870Y-88810850D01*
X126658578Y-88429653D01*
X126748020Y-87980000D01*
X126658578Y-87530347D01*
X126403870Y-87149150D01*
X126022673Y-86894442D01*
X125573020Y-86805000D01*
X125526980Y-86805000D01*
X125155916Y-86878810D01*
X125103556Y-86826450D01*
X125103554Y-86826447D01*
X124924999Y-86647893D01*
X124924999Y-86423776D01*
X125077327Y-86525558D01*
X125526980Y-86615000D01*
X125573020Y-86615000D01*
X126022673Y-86525558D01*
X126403870Y-86270850D01*
X126658578Y-85889653D01*
X126748020Y-85440000D01*
X131971980Y-85440000D01*
X132061422Y-85889653D01*
X132316130Y-86270850D01*
X132697327Y-86525558D01*
X133146980Y-86615000D01*
X133193020Y-86615000D01*
X133642673Y-86525558D01*
X134023870Y-86270850D01*
X134278578Y-85889653D01*
X134368020Y-85440000D01*
X134278578Y-84990347D01*
X134023870Y-84609150D01*
X133642673Y-84354442D01*
X133193020Y-84265000D01*
X133146980Y-84265000D01*
X132697327Y-84354442D01*
X132316130Y-84609150D01*
X132061422Y-84990347D01*
X131971980Y-85440000D01*
X126748020Y-85440000D01*
X126666572Y-85030535D01*
X126703552Y-84993555D01*
X126703554Y-84993552D01*
X127788117Y-83908990D01*
X137150878Y-83908990D01*
X137025683Y-84096357D01*
X136931400Y-84570349D01*
X136931400Y-84929651D01*
X137025683Y-85403643D01*
X137294178Y-85805473D01*
X137696008Y-86073968D01*
X138170000Y-86168251D01*
X138643992Y-86073968D01*
X139045822Y-85805473D01*
X139314317Y-85403643D01*
X139319650Y-85376834D01*
X139420854Y-85664945D01*
X139810798Y-86100235D01*
X140337637Y-86353165D01*
X140349340Y-86354893D01*
X140581000Y-86234519D01*
X140581000Y-84879000D01*
X140561000Y-84879000D01*
X140561000Y-84621000D01*
X140581000Y-84621000D01*
X140581000Y-84601000D01*
X140839000Y-84601000D01*
X140839000Y-84621000D01*
X140859000Y-84621000D01*
X140859000Y-84879000D01*
X140839000Y-84879000D01*
X140839000Y-86234519D01*
X141070660Y-86354893D01*
X141082363Y-86353165D01*
X141609202Y-86100235D01*
X141999146Y-85664945D01*
X142100350Y-85376834D01*
X142105683Y-85403643D01*
X142374178Y-85805473D01*
X142776008Y-86073968D01*
X143250000Y-86168251D01*
X143717667Y-86075226D01*
X142821686Y-86971207D01*
X142714469Y-86926687D01*
X142287404Y-86926314D01*
X141892706Y-87089400D01*
X141590462Y-87391117D01*
X141426687Y-87785531D01*
X141426314Y-88212596D01*
X141471336Y-88321558D01*
X141447950Y-88344944D01*
X141447947Y-88344946D01*
X141269393Y-88523501D01*
X139227461Y-88523501D01*
X139344216Y-88190053D01*
X139314624Y-87661176D01*
X139169164Y-87310005D01*
X138934355Y-87248078D01*
X138182434Y-88000000D01*
X138196576Y-88014142D01*
X138014142Y-88196576D01*
X138000000Y-88182434D01*
X137985858Y-88196576D01*
X137803424Y-88014142D01*
X137817566Y-88000000D01*
X137065645Y-87248078D01*
X136830836Y-87310005D01*
X136655784Y-87809947D01*
X136685376Y-88338824D01*
X136761872Y-88523501D01*
X134420608Y-88523501D01*
X134286572Y-88389465D01*
X134368020Y-87980000D01*
X134278578Y-87530347D01*
X134023870Y-87149150D01*
X133898897Y-87065645D01*
X137248078Y-87065645D01*
X138000000Y-87817566D01*
X138751922Y-87065645D01*
X138689995Y-86830836D01*
X138190053Y-86655784D01*
X137661176Y-86685376D01*
X137310005Y-86830836D01*
X137248078Y-87065645D01*
X133898897Y-87065645D01*
X133642673Y-86894442D01*
X133193020Y-86805000D01*
X133146980Y-86805000D01*
X132697327Y-86894442D01*
X132316130Y-87149150D01*
X132061422Y-87530347D01*
X131971980Y-87980000D01*
X132061422Y-88429653D01*
X132316130Y-88810850D01*
X132697327Y-89065558D01*
X133146980Y-89155000D01*
X133193020Y-89155000D01*
X133564084Y-89081190D01*
X133859947Y-89377054D01*
X133981646Y-89458371D01*
X134022159Y-89485441D01*
X134213501Y-89523501D01*
X141476499Y-89523501D01*
X141667841Y-89485441D01*
X141830052Y-89377054D01*
X142155054Y-89052053D01*
X142155056Y-89052050D01*
X142178314Y-89028792D01*
X142285531Y-89073313D01*
X142712596Y-89073686D01*
X143049802Y-88934355D01*
X144248078Y-88934355D01*
X144310005Y-89169164D01*
X144809947Y-89344216D01*
X145338824Y-89314624D01*
X145689995Y-89169164D01*
X145751922Y-88934355D01*
X145000000Y-88182434D01*
X144248078Y-88934355D01*
X143049802Y-88934355D01*
X143107294Y-88910600D01*
X143409538Y-88608883D01*
X143573313Y-88214469D01*
X143573686Y-87787404D01*
X143528664Y-87678442D01*
X143795132Y-87411975D01*
X143655784Y-87809947D01*
X143685376Y-88338824D01*
X143830836Y-88689995D01*
X144065645Y-88751922D01*
X144817566Y-88000000D01*
X145182434Y-88000000D01*
X145934355Y-88751922D01*
X146169164Y-88689995D01*
X146344216Y-88190053D01*
X146314624Y-87661176D01*
X146169164Y-87310005D01*
X145934355Y-87248078D01*
X145182434Y-88000000D01*
X144817566Y-88000000D01*
X144803424Y-87985858D01*
X144985858Y-87803424D01*
X145000000Y-87817566D01*
X145751922Y-87065645D01*
X145689995Y-86830836D01*
X145190053Y-86655784D01*
X144661176Y-86685376D01*
X144423128Y-86783979D01*
X144616097Y-86591010D01*
X149681390Y-86591010D01*
X149872732Y-86552950D01*
X150034943Y-86444563D01*
X150403957Y-86075549D01*
X150665350Y-86127544D01*
X149821686Y-86971208D01*
X149714469Y-86926687D01*
X149287404Y-86926314D01*
X148892706Y-87089400D01*
X148590462Y-87391117D01*
X148426687Y-87785531D01*
X148426314Y-88212596D01*
X148471336Y-88321557D01*
X146772894Y-90020000D01*
X134244937Y-90020000D01*
X134023870Y-89689150D01*
X133642673Y-89434442D01*
X133193020Y-89345000D01*
X133146980Y-89345000D01*
X132697327Y-89434442D01*
X132316130Y-89689150D01*
X132061422Y-90070347D01*
X131971980Y-90520000D01*
X132061422Y-90969653D01*
X132316130Y-91350850D01*
X132697327Y-91605558D01*
X133146980Y-91695000D01*
X133193020Y-91695000D01*
X133642673Y-91605558D01*
X134023870Y-91350850D01*
X134244937Y-91020000D01*
X146980000Y-91020000D01*
X147171342Y-90981940D01*
X147333553Y-90873553D01*
X149178314Y-89028793D01*
X149285531Y-89073313D01*
X149712596Y-89073686D01*
X150049802Y-88934355D01*
X151248078Y-88934355D01*
X151310005Y-89169164D01*
X151809947Y-89344216D01*
X152338824Y-89314624D01*
X152689995Y-89169164D01*
X152751922Y-88934355D01*
X152000000Y-88182434D01*
X151248078Y-88934355D01*
X150049802Y-88934355D01*
X150107294Y-88910600D01*
X150409538Y-88608883D01*
X150573313Y-88214469D01*
X150573686Y-87787404D01*
X150528664Y-87678442D01*
X150795132Y-87411974D01*
X150655784Y-87809947D01*
X150685376Y-88338824D01*
X150830836Y-88689995D01*
X151065645Y-88751922D01*
X151817566Y-88000000D01*
X152182434Y-88000000D01*
X152934355Y-88751922D01*
X153169164Y-88689995D01*
X153344216Y-88190053D01*
X153314624Y-87661176D01*
X153169164Y-87310005D01*
X152934355Y-87248078D01*
X152182434Y-88000000D01*
X151817566Y-88000000D01*
X151803424Y-87985858D01*
X151985858Y-87803424D01*
X152000000Y-87817566D01*
X152751922Y-87065645D01*
X152689995Y-86830836D01*
X152190053Y-86655784D01*
X151661176Y-86685376D01*
X151423127Y-86783979D01*
X152481088Y-85726018D01*
X152534178Y-85805473D01*
X152936008Y-86073968D01*
X153410000Y-86168251D01*
X153883992Y-86073968D01*
X154285822Y-85805473D01*
X154554317Y-85403643D01*
X154648600Y-84929651D01*
X154648600Y-84570349D01*
X154554317Y-84096357D01*
X154285822Y-83694527D01*
X153883992Y-83426032D01*
X153410000Y-83331749D01*
X152936008Y-83426032D01*
X152534178Y-83694527D01*
X152265683Y-84096357D01*
X152171400Y-84570349D01*
X152171400Y-84621494D01*
X152108600Y-84684294D01*
X152108600Y-84570349D01*
X152014317Y-84096357D01*
X151745822Y-83694527D01*
X151343992Y-83426032D01*
X150870000Y-83331749D01*
X150396008Y-83426032D01*
X149994178Y-83694527D01*
X149725683Y-84096357D01*
X149631400Y-84570349D01*
X149631400Y-84929651D01*
X149715059Y-85350234D01*
X149474284Y-85591010D01*
X149349122Y-85591010D01*
X149474317Y-85403643D01*
X149568600Y-84929651D01*
X149568600Y-84570349D01*
X149474317Y-84096357D01*
X149205822Y-83694527D01*
X148803992Y-83426032D01*
X148330000Y-83331749D01*
X147863957Y-83424451D01*
X147044933Y-82605427D01*
X146882722Y-82497040D01*
X146691380Y-82458980D01*
X126366018Y-82458980D01*
X126174676Y-82497040D01*
X126012464Y-82605427D01*
X124071446Y-84546446D01*
X123963059Y-84708657D01*
X123924999Y-84899999D01*
X123924999Y-86854999D01*
X123956825Y-87015000D01*
X123963059Y-87046341D01*
X124071446Y-87208552D01*
X124396447Y-87533554D01*
X124396450Y-87533556D01*
X124433428Y-87570534D01*
X124351980Y-87980000D01*
X124433428Y-88389465D01*
X124072894Y-88750000D01*
X121940604Y-88750000D01*
X121825915Y-88472431D01*
X121439603Y-88085443D01*
X121160000Y-87969342D01*
X121160000Y-87530604D01*
X121437569Y-87415915D01*
X121824557Y-87029603D01*
X122034251Y-86524602D01*
X122034728Y-85977796D01*
X121825915Y-85472431D01*
X121439603Y-85085443D01*
X121160000Y-84969342D01*
X121160000Y-84481976D01*
X121509630Y-84481976D01*
X121648596Y-84455828D01*
X121776229Y-84373699D01*
X121861853Y-84248384D01*
X121891976Y-84099630D01*
X121891976Y-82400370D01*
X121865828Y-82261404D01*
X121783699Y-82133771D01*
X121658384Y-82048147D01*
X121509630Y-82018024D01*
X119810370Y-82018024D01*
X119671404Y-82044172D01*
X119543771Y-82126301D01*
X119458147Y-82251616D01*
X119428024Y-82400370D01*
X119428024Y-84099630D01*
X119454172Y-84238596D01*
X119536301Y-84366229D01*
X119661616Y-84451853D01*
X119810370Y-84481976D01*
X120160000Y-84481976D01*
X120160000Y-84969396D01*
X119882431Y-85084085D01*
X119495443Y-85470397D01*
X119285749Y-85975398D01*
X119285272Y-86522204D01*
X111874253Y-86522204D01*
X111874728Y-85977796D01*
X111665915Y-85472431D01*
X111279603Y-85085443D01*
X110774602Y-84875749D01*
X110227796Y-84875272D01*
X109722431Y-85084085D01*
X109335443Y-85470397D01*
X109311828Y-85527270D01*
X108078434Y-84293876D01*
X109638557Y-84293876D01*
X109719063Y-84544335D01*
X110273829Y-84744661D01*
X110863027Y-84717439D01*
X111280937Y-84544335D01*
X111361443Y-84293876D01*
X110500000Y-83432434D01*
X109638557Y-84293876D01*
X108078434Y-84293876D01*
X107845994Y-84061437D01*
X107683783Y-83953050D01*
X107492441Y-83914990D01*
X106217559Y-83914990D01*
X106026217Y-83953050D01*
X105864005Y-84061437D01*
X105026447Y-84898996D01*
X104918060Y-85061207D01*
X104897414Y-85165000D01*
X104806491Y-85165000D01*
X104452509Y-85235411D01*
X104152417Y-85435926D01*
X103951902Y-85736018D01*
X103881491Y-86090000D01*
X100200000Y-86090000D01*
X100200000Y-84752437D01*
X100306615Y-84645822D01*
X100448371Y-84948202D01*
X101184406Y-85232094D01*
X101973053Y-85212708D01*
X102611629Y-84948202D01*
X102753386Y-84645819D01*
X101530000Y-83422434D01*
X101515858Y-83436576D01*
X101333424Y-83254142D01*
X101347566Y-83240000D01*
X101333424Y-83225858D01*
X101515858Y-83043424D01*
X101530000Y-83057566D01*
X101544142Y-83043424D01*
X101726576Y-83225858D01*
X101712434Y-83240000D01*
X102935819Y-84463386D01*
X103238202Y-84321629D01*
X103522094Y-83585594D01*
X103508286Y-83023829D01*
X109005339Y-83023829D01*
X109032561Y-83613027D01*
X109205665Y-84030937D01*
X109456124Y-84111443D01*
X110317566Y-83250000D01*
X110682434Y-83250000D01*
X111543876Y-84111443D01*
X111794335Y-84030937D01*
X111994661Y-83476171D01*
X111967439Y-82886973D01*
X111794335Y-82469063D01*
X111543876Y-82388557D01*
X110682434Y-83250000D01*
X110317566Y-83250000D01*
X109456124Y-82388557D01*
X109205665Y-82469063D01*
X109005339Y-83023829D01*
X103508286Y-83023829D01*
X103502708Y-82796947D01*
X103238202Y-82158371D01*
X102935822Y-82016615D01*
X103002437Y-81950000D01*
X109732740Y-81950000D01*
X109719063Y-81955665D01*
X109719063Y-81955665D01*
G37*
X109719063Y-81955665D02*
X109638557Y-82206124D01*
X110500000Y-83067566D01*
X111361443Y-82206124D01*
X111280937Y-81955665D01*
X111265249Y-81950000D01*
X157300000Y-81950000D01*
X157300000Y-87281913D01*
X157108883Y-87090462D01*
X157000000Y-87045250D01*
X157000000Y-85544798D01*
X157094317Y-85403643D01*
X157188600Y-84929651D01*
X157188600Y-84570349D01*
X157094317Y-84096357D01*
X156825822Y-83694527D01*
X156423992Y-83426032D01*
X155950000Y-83331749D01*
X155476008Y-83426032D01*
X155074178Y-83694527D01*
X154805683Y-84096357D01*
X154711400Y-84570349D01*
X154711400Y-84929651D01*
X154805683Y-85403643D01*
X155074178Y-85805473D01*
X155476008Y-86073968D01*
X155950000Y-86168251D01*
X156000000Y-86158305D01*
X156000000Y-87045067D01*
X155892706Y-87089400D01*
X155590462Y-87391117D01*
X155426687Y-87785531D01*
X155426314Y-88212596D01*
X155471336Y-88321557D01*
X151232894Y-92560000D01*
X134244937Y-92560000D01*
X134023870Y-92229150D01*
X133642673Y-91974442D01*
X133193020Y-91885000D01*
X133146980Y-91885000D01*
X132697327Y-91974442D01*
X132316130Y-92229150D01*
X132061422Y-92610347D01*
X131971980Y-93060000D01*
X132061422Y-93509653D01*
X132316130Y-93890850D01*
X132697327Y-94145558D01*
X133146980Y-94235000D01*
X133193020Y-94235000D01*
X133642673Y-94145558D01*
X134023870Y-93890850D01*
X134244937Y-93560000D01*
X137023547Y-93560000D01*
X136950555Y-93632992D01*
X137065642Y-93748079D01*
X136830836Y-93810005D01*
X136655784Y-94309947D01*
X136685376Y-94838824D01*
X136830836Y-95189995D01*
X137065645Y-95251922D01*
X137817566Y-94500000D01*
X137803424Y-94485858D01*
X137985858Y-94303424D01*
X138000000Y-94317566D01*
X138014142Y-94303424D01*
X138196576Y-94485858D01*
X138182434Y-94500000D01*
X138934355Y-95251922D01*
X139169164Y-95189995D01*
X139344216Y-94690053D01*
X139314624Y-94161176D01*
X139169164Y-93810005D01*
X138934358Y-93748079D01*
X139049445Y-93632992D01*
X138976453Y-93560000D01*
X141963859Y-93560000D01*
X141892706Y-93589400D01*
X141590462Y-93891117D01*
X141426687Y-94285531D01*
X141426314Y-94712596D01*
X141589400Y-95107294D01*
X141891117Y-95409538D01*
X142285531Y-95573313D01*
X142712596Y-95573686D01*
X143049802Y-95434355D01*
X144248078Y-95434355D01*
X144310005Y-95669164D01*
X144809947Y-95844216D01*
X145338824Y-95814624D01*
X145689995Y-95669164D01*
X145751922Y-95434355D01*
X145000000Y-94682434D01*
X144248078Y-95434355D01*
X143049802Y-95434355D01*
X143107294Y-95410600D01*
X143409538Y-95108883D01*
X143573313Y-94714469D01*
X143573686Y-94287404D01*
X143410600Y-93892706D01*
X143108883Y-93590462D01*
X143035522Y-93560000D01*
X144023547Y-93560000D01*
X143950555Y-93632992D01*
X144065642Y-93748079D01*
X143830836Y-93810005D01*
X143655784Y-94309947D01*
X143685376Y-94838824D01*
X143830836Y-95189995D01*
X144065645Y-95251922D01*
X144817566Y-94500000D01*
X144803424Y-94485858D01*
X144985858Y-94303424D01*
X145000000Y-94317566D01*
X145014142Y-94303424D01*
X145196576Y-94485858D01*
X145182434Y-94500000D01*
X145934355Y-95251922D01*
X146169164Y-95189995D01*
X146344216Y-94690053D01*
X146314624Y-94161176D01*
X146169164Y-93810005D01*
X145934358Y-93748079D01*
X146049445Y-93632992D01*
X145976453Y-93560000D01*
X148963859Y-93560000D01*
X148892706Y-93589400D01*
X148590462Y-93891117D01*
X148426687Y-94285531D01*
X148426314Y-94712596D01*
X148589400Y-95107294D01*
X148891117Y-95409538D01*
X149285531Y-95573313D01*
X149712596Y-95573686D01*
X150049802Y-95434355D01*
X151248078Y-95434355D01*
X151310005Y-95669164D01*
X151809947Y-95844216D01*
X152338824Y-95814624D01*
X152689995Y-95669164D01*
X152751922Y-95434355D01*
X152000000Y-94682434D01*
X151248078Y-95434355D01*
X150049802Y-95434355D01*
X150107294Y-95410600D01*
X150409538Y-95108883D01*
X150573313Y-94714469D01*
X150573686Y-94287404D01*
X150410600Y-93892706D01*
X150108883Y-93590462D01*
X150035522Y-93560000D01*
X151023547Y-93560000D01*
X150950555Y-93632992D01*
X151065642Y-93748079D01*
X150830836Y-93810005D01*
X150655784Y-94309947D01*
X150685376Y-94838824D01*
X150830836Y-95189995D01*
X151065645Y-95251922D01*
X151817566Y-94500000D01*
X152182434Y-94500000D01*
X152934355Y-95251922D01*
X153169164Y-95189995D01*
X153344216Y-94690053D01*
X153314624Y-94161176D01*
X153169164Y-93810005D01*
X152934355Y-93748078D01*
X152182434Y-94500000D01*
X151817566Y-94500000D01*
X151803424Y-94485858D01*
X151985858Y-94303424D01*
X152000000Y-94317566D01*
X152751922Y-93565645D01*
X152689995Y-93330836D01*
X152190053Y-93155784D01*
X152043100Y-93164006D01*
X156178314Y-89028793D01*
X156285531Y-89073313D01*
X156712596Y-89073686D01*
X157107294Y-88910600D01*
X157300000Y-88718230D01*
X157300000Y-93781913D01*
X157108883Y-93590462D01*
X156714469Y-93426687D01*
X156287404Y-93426314D01*
X155892706Y-93589400D01*
X155590462Y-93891117D01*
X155426687Y-94285531D01*
X155426314Y-94712596D01*
X155589400Y-95107294D01*
X155891117Y-95409538D01*
X156285531Y-95573313D01*
X156712596Y-95573686D01*
X157107294Y-95410600D01*
X157300000Y-95218230D01*
X157300000Y-96800000D01*
X100200000Y-96800000D01*
X100200000Y-96293876D01*
X109758557Y-96293876D01*
X109839063Y-96544335D01*
X110393829Y-96744661D01*
X110983027Y-96717439D01*
X111400937Y-96544335D01*
X111481443Y-96293876D01*
X110620000Y-95432434D01*
X109758557Y-96293876D01*
X100200000Y-96293876D01*
X100200000Y-93350000D01*
X102967654Y-93350000D01*
X102967654Y-94650000D01*
X102993802Y-94788966D01*
X103075931Y-94916599D01*
X103201246Y-95002223D01*
X103350000Y-95032346D01*
X104650000Y-95032346D01*
X104788966Y-95006198D01*
X104916599Y-94924069D01*
X104933608Y-94899175D01*
X105283258Y-94899175D01*
X105339209Y-95128970D01*
X105821547Y-95295905D01*
X106331052Y-95265551D01*
X106660791Y-95128970D01*
X106686390Y-95023829D01*
X109125339Y-95023829D01*
X109152561Y-95613027D01*
X109325665Y-96030937D01*
X109576124Y-96111443D01*
X110437566Y-95250000D01*
X110802434Y-95250000D01*
X111663876Y-96111443D01*
X111914335Y-96030937D01*
X112114661Y-95476171D01*
X112087439Y-94886973D01*
X111914335Y-94469063D01*
X111663876Y-94388557D01*
X110802434Y-95250000D01*
X110437566Y-95250000D01*
X109576124Y-94388557D01*
X109325665Y-94469063D01*
X109125339Y-95023829D01*
X106686390Y-95023829D01*
X106716742Y-94899175D01*
X106000000Y-94182434D01*
X105283258Y-94899175D01*
X104933608Y-94899175D01*
X105002223Y-94798754D01*
X105022683Y-94697716D01*
X105100825Y-94716742D01*
X105817566Y-94000000D01*
X106182434Y-94000000D01*
X106899175Y-94716742D01*
X107128970Y-94660791D01*
X107286328Y-94206124D01*
X109758557Y-94206124D01*
X110620000Y-95067566D01*
X111481443Y-94206124D01*
X111400937Y-93955665D01*
X110846171Y-93755339D01*
X110256973Y-93782561D01*
X109839063Y-93955665D01*
X109758557Y-94206124D01*
X107286328Y-94206124D01*
X107295905Y-94178453D01*
X107265551Y-93668948D01*
X107128970Y-93339209D01*
X106899175Y-93283258D01*
X106182434Y-94000000D01*
X105817566Y-94000000D01*
X105100825Y-93283258D01*
X105023338Y-93302125D01*
X105006198Y-93211034D01*
X104935281Y-93100825D01*
X105283258Y-93100825D01*
X106000000Y-93817566D01*
X106716742Y-93100825D01*
X106660791Y-92871030D01*
X106178453Y-92704095D01*
X105668948Y-92734449D01*
X105339209Y-92871030D01*
X105283258Y-93100825D01*
X104935281Y-93100825D01*
X104924069Y-93083401D01*
X104798754Y-92997777D01*
X104650000Y-92967654D01*
X103350000Y-92967654D01*
X103211034Y-92993802D01*
X103083401Y-93075931D01*
X102997777Y-93201246D01*
X102967654Y-93350000D01*
X100200000Y-93350000D01*
X100200000Y-92052437D01*
X100306615Y-91945822D01*
X100448371Y-92248202D01*
X101184406Y-92532094D01*
X101973053Y-92512708D01*
X102611629Y-92248202D01*
X102753386Y-91945819D01*
X101530000Y-90722434D01*
X101515858Y-90736576D01*
X101333424Y-90554142D01*
X101347566Y-90540000D01*
X101712434Y-90540000D01*
X102935819Y-91763386D01*
X103238202Y-91621629D01*
X103522094Y-90885594D01*
X103502708Y-90096947D01*
X103238202Y-89458371D01*
X102935819Y-89316614D01*
X101712434Y-90540000D01*
X101347566Y-90540000D01*
X101333424Y-90525858D01*
X101515858Y-90343424D01*
X101530000Y-90357566D01*
X102753386Y-89134181D01*
X102611629Y-88831798D01*
X101875594Y-88547906D01*
X101086947Y-88567292D01*
X100448371Y-88831798D01*
X100306615Y-89134178D01*
X100200000Y-89027563D01*
X100200000Y-86090000D01*
X103881491Y-86090000D01*
X103951902Y-86443982D01*
X104152417Y-86744074D01*
X104370811Y-86890000D01*
X104152417Y-87035926D01*
X103951902Y-87336018D01*
X103881491Y-87690000D01*
X103951902Y-88043982D01*
X104152417Y-88344074D01*
X104452509Y-88544589D01*
X104806491Y-88615000D01*
X105397000Y-88615000D01*
X105397000Y-88619002D01*
X105563401Y-88619002D01*
X105438712Y-88801370D01*
X105652276Y-89235290D01*
X106008105Y-89533583D01*
X106451000Y-89673000D01*
X106726000Y-89673000D01*
X106726000Y-88619000D01*
X106706000Y-88619000D01*
X106706000Y-88361000D01*
X106726000Y-88361000D01*
X106726000Y-88341000D01*
X106984000Y-88341000D01*
X106984000Y-88361000D01*
X107004000Y-88361000D01*
X107004000Y-88619000D01*
X106984000Y-88619000D01*
X106984000Y-89673000D01*
X107259000Y-89673000D01*
X107701895Y-89533583D01*
X108057724Y-89235290D01*
X108172478Y-89002133D01*
X108675509Y-89505165D01*
X108675509Y-90925509D01*
X108707322Y-91085443D01*
X108713569Y-91116851D01*
X108821956Y-91279062D01*
X109240922Y-91698028D01*
X109125749Y-91975398D01*
X109125272Y-92522204D01*
X109334085Y-93027569D01*
X109720397Y-93414557D01*
X110225398Y-93624251D01*
X110772204Y-93624728D01*
X111277569Y-93415915D01*
X111664557Y-93029603D01*
X111874251Y-92524602D01*
X111874253Y-92522204D01*
X119285272Y-92522204D01*
X119494085Y-93027569D01*
X119880397Y-93414557D01*
X120160000Y-93530658D01*
X120160000Y-94018024D01*
X119930370Y-94018024D01*
X119791404Y-94044172D01*
X119663771Y-94126301D01*
X119578147Y-94251616D01*
X119548024Y-94400370D01*
X119548024Y-96099630D01*
X119574172Y-96238596D01*
X119656301Y-96366229D01*
X119781616Y-96451853D01*
X119930370Y-96481976D01*
X121629630Y-96481976D01*
X121768596Y-96455828D01*
X121896229Y-96373699D01*
X121981853Y-96248384D01*
X122011976Y-96099630D01*
X122011976Y-95434355D01*
X137248078Y-95434355D01*
X137310005Y-95669164D01*
X137809947Y-95844216D01*
X138338824Y-95814624D01*
X138689995Y-95669164D01*
X138751922Y-95434355D01*
X138000000Y-94682434D01*
X137248078Y-95434355D01*
X122011976Y-95434355D01*
X122011976Y-94400370D01*
X121985828Y-94261404D01*
X121903699Y-94133771D01*
X121778384Y-94048147D01*
X121629630Y-94018024D01*
X121160000Y-94018024D01*
X121160000Y-93530604D01*
X121437569Y-93415915D01*
X121442821Y-93410672D01*
X124160569Y-93410672D01*
X124319552Y-93794519D01*
X124694303Y-94209479D01*
X125199326Y-94449441D01*
X125421000Y-94328942D01*
X125421000Y-93189000D01*
X125679000Y-93189000D01*
X125679000Y-94328942D01*
X125900674Y-94449441D01*
X126405697Y-94209479D01*
X126780448Y-93794519D01*
X126939431Y-93410672D01*
X126818206Y-93189000D01*
X125679000Y-93189000D01*
X125421000Y-93189000D01*
X124281794Y-93189000D01*
X124160569Y-93410672D01*
X121442821Y-93410672D01*
X121824557Y-93029603D01*
X122034251Y-92524602D01*
X122034728Y-91977796D01*
X121919115Y-91697992D01*
X122597107Y-91020000D01*
X124475063Y-91020000D01*
X124696130Y-91350850D01*
X125077327Y-91605558D01*
X125420998Y-91673919D01*
X125420998Y-91791057D01*
X125199326Y-91670559D01*
X124694303Y-91910521D01*
X124319552Y-92325481D01*
X124160569Y-92709328D01*
X124281794Y-92931000D01*
X125421000Y-92931000D01*
X125421000Y-92911000D01*
X125679000Y-92911000D01*
X125679000Y-92931000D01*
X126818206Y-92931000D01*
X126939431Y-92709328D01*
X126780448Y-92325481D01*
X126405697Y-91910521D01*
X125900674Y-91670559D01*
X125679002Y-91791057D01*
X125679002Y-91673919D01*
X126022673Y-91605558D01*
X126403870Y-91350850D01*
X126658578Y-90969653D01*
X126748020Y-90520000D01*
X126658578Y-90070347D01*
X126403870Y-89689150D01*
X126022673Y-89434442D01*
X125573020Y-89345000D01*
X125526980Y-89345000D01*
X125077327Y-89434442D01*
X124696130Y-89689150D01*
X124475063Y-90020000D01*
X122390000Y-90020000D01*
X122198658Y-90058060D01*
X122036446Y-90166447D01*
X121211971Y-90990922D01*
X120934602Y-90875749D01*
X120387796Y-90875272D01*
X119882431Y-91084085D01*
X119495443Y-91470397D01*
X119285749Y-91975398D01*
X119285272Y-92522204D01*
X111874253Y-92522204D01*
X111874728Y-91977796D01*
X111665915Y-91472431D01*
X111279603Y-91085443D01*
X110774602Y-90875749D01*
X110227796Y-90875272D01*
X109947991Y-90990885D01*
X109675509Y-90718403D01*
X109675509Y-90369590D01*
X109720397Y-90414557D01*
X110225398Y-90624251D01*
X110772204Y-90624728D01*
X111277569Y-90415915D01*
X111664557Y-90029603D01*
X111874251Y-89524602D01*
X111874728Y-88977796D01*
X111665915Y-88472431D01*
X111279603Y-88085443D01*
X110774602Y-87875749D01*
X110227796Y-87875272D01*
X109947991Y-87990885D01*
X109854066Y-87896960D01*
X109854064Y-87896957D01*
X109675509Y-87718403D01*
X109675509Y-87369590D01*
X109720397Y-87414557D01*
X110225398Y-87624251D01*
X110772204Y-87624728D01*
X111277569Y-87415915D01*
X111664557Y-87029603D01*
X111874251Y-86524602D01*
X111874253Y-86522204D01*
X119285272Y-86522204D01*
X119494085Y-87027569D01*
X119880397Y-87414557D01*
X120160000Y-87530658D01*
X120160000Y-87969396D01*
X119882431Y-88084085D01*
X119495443Y-88470397D01*
X119285749Y-88975398D01*
X119285272Y-89522204D01*
X119494085Y-90027569D01*
X119880397Y-90414557D01*
X120385398Y-90624251D01*
X120932204Y-90624728D01*
X121437569Y-90415915D01*
X121824557Y-90029603D01*
X121940658Y-89750000D01*
X124280000Y-89750000D01*
X124471342Y-89711940D01*
X124633553Y-89603553D01*
X125155916Y-89081190D01*
X125526980Y-89155000D01*
X125573020Y-89155000D01*
X126022673Y-89065558D01*
X126403870Y-88810850D01*
X126658578Y-88429653D01*
X126748020Y-87980000D01*
X126658578Y-87530347D01*
X126403870Y-87149150D01*
X126022673Y-86894442D01*
X125573020Y-86805000D01*
X125526980Y-86805000D01*
X125155916Y-86878810D01*
X125103556Y-86826450D01*
X125103554Y-86826447D01*
X124924999Y-86647893D01*
X124924999Y-86423776D01*
X125077327Y-86525558D01*
X125526980Y-86615000D01*
X125573020Y-86615000D01*
X126022673Y-86525558D01*
X126403870Y-86270850D01*
X126658578Y-85889653D01*
X126748020Y-85440000D01*
X131971980Y-85440000D01*
X132061422Y-85889653D01*
X132316130Y-86270850D01*
X132697327Y-86525558D01*
X133146980Y-86615000D01*
X133193020Y-86615000D01*
X133642673Y-86525558D01*
X134023870Y-86270850D01*
X134278578Y-85889653D01*
X134368020Y-85440000D01*
X134278578Y-84990347D01*
X134023870Y-84609150D01*
X133642673Y-84354442D01*
X133193020Y-84265000D01*
X133146980Y-84265000D01*
X132697327Y-84354442D01*
X132316130Y-84609150D01*
X132061422Y-84990347D01*
X131971980Y-85440000D01*
X126748020Y-85440000D01*
X126666572Y-85030535D01*
X126703552Y-84993555D01*
X126703554Y-84993552D01*
X127788117Y-83908990D01*
X137150878Y-83908990D01*
X137025683Y-84096357D01*
X136931400Y-84570349D01*
X136931400Y-84929651D01*
X137025683Y-85403643D01*
X137294178Y-85805473D01*
X137696008Y-86073968D01*
X138170000Y-86168251D01*
X138643992Y-86073968D01*
X139045822Y-85805473D01*
X139314317Y-85403643D01*
X139319650Y-85376834D01*
X139420854Y-85664945D01*
X139810798Y-86100235D01*
X140337637Y-86353165D01*
X140349340Y-86354893D01*
X140581000Y-86234519D01*
X140581000Y-84879000D01*
X140561000Y-84879000D01*
X140561000Y-84621000D01*
X140581000Y-84621000D01*
X140581000Y-84601000D01*
X140839000Y-84601000D01*
X140839000Y-84621000D01*
X140859000Y-84621000D01*
X140859000Y-84879000D01*
X140839000Y-84879000D01*
X140839000Y-86234519D01*
X141070660Y-86354893D01*
X141082363Y-86353165D01*
X141609202Y-86100235D01*
X141999146Y-85664945D01*
X142100350Y-85376834D01*
X142105683Y-85403643D01*
X142374178Y-85805473D01*
X142776008Y-86073968D01*
X143250000Y-86168251D01*
X143717667Y-86075226D01*
X142821686Y-86971207D01*
X142714469Y-86926687D01*
X142287404Y-86926314D01*
X141892706Y-87089400D01*
X141590462Y-87391117D01*
X141426687Y-87785531D01*
X141426314Y-88212596D01*
X141471336Y-88321558D01*
X141447950Y-88344944D01*
X141447947Y-88344946D01*
X141269393Y-88523501D01*
X139227461Y-88523501D01*
X139344216Y-88190053D01*
X139314624Y-87661176D01*
X139169164Y-87310005D01*
X138934355Y-87248078D01*
X138182434Y-88000000D01*
X138196576Y-88014142D01*
X138014142Y-88196576D01*
X138000000Y-88182434D01*
X137985858Y-88196576D01*
X137803424Y-88014142D01*
X137817566Y-88000000D01*
X137065645Y-87248078D01*
X136830836Y-87310005D01*
X136655784Y-87809947D01*
X136685376Y-88338824D01*
X136761872Y-88523501D01*
X134420608Y-88523501D01*
X134286572Y-88389465D01*
X134368020Y-87980000D01*
X134278578Y-87530347D01*
X134023870Y-87149150D01*
X133898897Y-87065645D01*
X137248078Y-87065645D01*
X138000000Y-87817566D01*
X138751922Y-87065645D01*
X138689995Y-86830836D01*
X138190053Y-86655784D01*
X137661176Y-86685376D01*
X137310005Y-86830836D01*
X137248078Y-87065645D01*
X133898897Y-87065645D01*
X133642673Y-86894442D01*
X133193020Y-86805000D01*
X133146980Y-86805000D01*
X132697327Y-86894442D01*
X132316130Y-87149150D01*
X132061422Y-87530347D01*
X131971980Y-87980000D01*
X132061422Y-88429653D01*
X132316130Y-88810850D01*
X132697327Y-89065558D01*
X133146980Y-89155000D01*
X133193020Y-89155000D01*
X133564084Y-89081190D01*
X133859947Y-89377054D01*
X133981646Y-89458371D01*
X134022159Y-89485441D01*
X134213501Y-89523501D01*
X141476499Y-89523501D01*
X141667841Y-89485441D01*
X141830052Y-89377054D01*
X142155054Y-89052053D01*
X142155056Y-89052050D01*
X142178314Y-89028792D01*
X142285531Y-89073313D01*
X142712596Y-89073686D01*
X143049802Y-88934355D01*
X144248078Y-88934355D01*
X144310005Y-89169164D01*
X144809947Y-89344216D01*
X145338824Y-89314624D01*
X145689995Y-89169164D01*
X145751922Y-88934355D01*
X145000000Y-88182434D01*
X144248078Y-88934355D01*
X143049802Y-88934355D01*
X143107294Y-88910600D01*
X143409538Y-88608883D01*
X143573313Y-88214469D01*
X143573686Y-87787404D01*
X143528664Y-87678442D01*
X143795132Y-87411975D01*
X143655784Y-87809947D01*
X143685376Y-88338824D01*
X143830836Y-88689995D01*
X144065645Y-88751922D01*
X144817566Y-88000000D01*
X145182434Y-88000000D01*
X145934355Y-88751922D01*
X146169164Y-88689995D01*
X146344216Y-88190053D01*
X146314624Y-87661176D01*
X146169164Y-87310005D01*
X145934355Y-87248078D01*
X145182434Y-88000000D01*
X144817566Y-88000000D01*
X144803424Y-87985858D01*
X144985858Y-87803424D01*
X145000000Y-87817566D01*
X145751922Y-87065645D01*
X145689995Y-86830836D01*
X145190053Y-86655784D01*
X144661176Y-86685376D01*
X144423128Y-86783979D01*
X144616097Y-86591010D01*
X149681390Y-86591010D01*
X149872732Y-86552950D01*
X150034943Y-86444563D01*
X150403957Y-86075549D01*
X150665350Y-86127544D01*
X149821686Y-86971208D01*
X149714469Y-86926687D01*
X149287404Y-86926314D01*
X148892706Y-87089400D01*
X148590462Y-87391117D01*
X148426687Y-87785531D01*
X148426314Y-88212596D01*
X148471336Y-88321557D01*
X146772894Y-90020000D01*
X134244937Y-90020000D01*
X134023870Y-89689150D01*
X133642673Y-89434442D01*
X133193020Y-89345000D01*
X133146980Y-89345000D01*
X132697327Y-89434442D01*
X132316130Y-89689150D01*
X132061422Y-90070347D01*
X131971980Y-90520000D01*
X132061422Y-90969653D01*
X132316130Y-91350850D01*
X132697327Y-91605558D01*
X133146980Y-91695000D01*
X133193020Y-91695000D01*
X133642673Y-91605558D01*
X134023870Y-91350850D01*
X134244937Y-91020000D01*
X146980000Y-91020000D01*
X147171342Y-90981940D01*
X147333553Y-90873553D01*
X149178314Y-89028793D01*
X149285531Y-89073313D01*
X149712596Y-89073686D01*
X150049802Y-88934355D01*
X151248078Y-88934355D01*
X151310005Y-89169164D01*
X151809947Y-89344216D01*
X152338824Y-89314624D01*
X152689995Y-89169164D01*
X152751922Y-88934355D01*
X152000000Y-88182434D01*
X151248078Y-88934355D01*
X150049802Y-88934355D01*
X150107294Y-88910600D01*
X150409538Y-88608883D01*
X150573313Y-88214469D01*
X150573686Y-87787404D01*
X150528664Y-87678442D01*
X150795132Y-87411974D01*
X150655784Y-87809947D01*
X150685376Y-88338824D01*
X150830836Y-88689995D01*
X151065645Y-88751922D01*
X151817566Y-88000000D01*
X152182434Y-88000000D01*
X152934355Y-88751922D01*
X153169164Y-88689995D01*
X153344216Y-88190053D01*
X153314624Y-87661176D01*
X153169164Y-87310005D01*
X152934355Y-87248078D01*
X152182434Y-88000000D01*
X151817566Y-88000000D01*
X151803424Y-87985858D01*
X151985858Y-87803424D01*
X152000000Y-87817566D01*
X152751922Y-87065645D01*
X152689995Y-86830836D01*
X152190053Y-86655784D01*
X151661176Y-86685376D01*
X151423127Y-86783979D01*
X152481088Y-85726018D01*
X152534178Y-85805473D01*
X152936008Y-86073968D01*
X153410000Y-86168251D01*
X153883992Y-86073968D01*
X154285822Y-85805473D01*
X154554317Y-85403643D01*
X154648600Y-84929651D01*
X154648600Y-84570349D01*
X154554317Y-84096357D01*
X154285822Y-83694527D01*
X153883992Y-83426032D01*
X153410000Y-83331749D01*
X152936008Y-83426032D01*
X152534178Y-83694527D01*
X152265683Y-84096357D01*
X152171400Y-84570349D01*
X152171400Y-84621494D01*
X152108600Y-84684294D01*
X152108600Y-84570349D01*
X152014317Y-84096357D01*
X151745822Y-83694527D01*
X151343992Y-83426032D01*
X150870000Y-83331749D01*
X150396008Y-83426032D01*
X149994178Y-83694527D01*
X149725683Y-84096357D01*
X149631400Y-84570349D01*
X149631400Y-84929651D01*
X149715059Y-85350234D01*
X149474284Y-85591010D01*
X149349122Y-85591010D01*
X149474317Y-85403643D01*
X149568600Y-84929651D01*
X149568600Y-84570349D01*
X149474317Y-84096357D01*
X149205822Y-83694527D01*
X148803992Y-83426032D01*
X148330000Y-83331749D01*
X147863957Y-83424451D01*
X147044933Y-82605427D01*
X146882722Y-82497040D01*
X146691380Y-82458980D01*
X126366018Y-82458980D01*
X126174676Y-82497040D01*
X126012464Y-82605427D01*
X124071446Y-84546446D01*
X123963059Y-84708657D01*
X123924999Y-84899999D01*
X123924999Y-86854999D01*
X123956825Y-87015000D01*
X123963059Y-87046341D01*
X124071446Y-87208552D01*
X124396447Y-87533554D01*
X124396450Y-87533556D01*
X124433428Y-87570534D01*
X124351980Y-87980000D01*
X124433428Y-88389465D01*
X124072894Y-88750000D01*
X121940604Y-88750000D01*
X121825915Y-88472431D01*
X121439603Y-88085443D01*
X121160000Y-87969342D01*
X121160000Y-87530604D01*
X121437569Y-87415915D01*
X121824557Y-87029603D01*
X122034251Y-86524602D01*
X122034728Y-85977796D01*
X121825915Y-85472431D01*
X121439603Y-85085443D01*
X121160000Y-84969342D01*
X121160000Y-84481976D01*
X121509630Y-84481976D01*
X121648596Y-84455828D01*
X121776229Y-84373699D01*
X121861853Y-84248384D01*
X121891976Y-84099630D01*
X121891976Y-82400370D01*
X121865828Y-82261404D01*
X121783699Y-82133771D01*
X121658384Y-82048147D01*
X121509630Y-82018024D01*
X119810370Y-82018024D01*
X119671404Y-82044172D01*
X119543771Y-82126301D01*
X119458147Y-82251616D01*
X119428024Y-82400370D01*
X119428024Y-84099630D01*
X119454172Y-84238596D01*
X119536301Y-84366229D01*
X119661616Y-84451853D01*
X119810370Y-84481976D01*
X120160000Y-84481976D01*
X120160000Y-84969396D01*
X119882431Y-85084085D01*
X119495443Y-85470397D01*
X119285749Y-85975398D01*
X119285272Y-86522204D01*
X111874253Y-86522204D01*
X111874728Y-85977796D01*
X111665915Y-85472431D01*
X111279603Y-85085443D01*
X110774602Y-84875749D01*
X110227796Y-84875272D01*
X109722431Y-85084085D01*
X109335443Y-85470397D01*
X109311828Y-85527270D01*
X108078434Y-84293876D01*
X109638557Y-84293876D01*
X109719063Y-84544335D01*
X110273829Y-84744661D01*
X110863027Y-84717439D01*
X111280937Y-84544335D01*
X111361443Y-84293876D01*
X110500000Y-83432434D01*
X109638557Y-84293876D01*
X108078434Y-84293876D01*
X107845994Y-84061437D01*
X107683783Y-83953050D01*
X107492441Y-83914990D01*
X106217559Y-83914990D01*
X106026217Y-83953050D01*
X105864005Y-84061437D01*
X105026447Y-84898996D01*
X104918060Y-85061207D01*
X104897414Y-85165000D01*
X104806491Y-85165000D01*
X104452509Y-85235411D01*
X104152417Y-85435926D01*
X103951902Y-85736018D01*
X103881491Y-86090000D01*
X100200000Y-86090000D01*
X100200000Y-84752437D01*
X100306615Y-84645822D01*
X100448371Y-84948202D01*
X101184406Y-85232094D01*
X101973053Y-85212708D01*
X102611629Y-84948202D01*
X102753386Y-84645819D01*
X101530000Y-83422434D01*
X101515858Y-83436576D01*
X101333424Y-83254142D01*
X101347566Y-83240000D01*
X101333424Y-83225858D01*
X101515858Y-83043424D01*
X101530000Y-83057566D01*
X101544142Y-83043424D01*
X101726576Y-83225858D01*
X101712434Y-83240000D01*
X102935819Y-84463386D01*
X103238202Y-84321629D01*
X103522094Y-83585594D01*
X103508286Y-83023829D01*
X109005339Y-83023829D01*
X109032561Y-83613027D01*
X109205665Y-84030937D01*
X109456124Y-84111443D01*
X110317566Y-83250000D01*
X110682434Y-83250000D01*
X111543876Y-84111443D01*
X111794335Y-84030937D01*
X111994661Y-83476171D01*
X111967439Y-82886973D01*
X111794335Y-82469063D01*
X111543876Y-82388557D01*
X110682434Y-83250000D01*
X110317566Y-83250000D01*
X109456124Y-82388557D01*
X109205665Y-82469063D01*
X109005339Y-83023829D01*
X103508286Y-83023829D01*
X103502708Y-82796947D01*
X103238202Y-82158371D01*
X102935822Y-82016615D01*
X103002437Y-81950000D01*
X109732740Y-81950000D01*
X109719063Y-81955665D01*
M02*
